<?xml version="1.0" standalone="no"?>
<!DOCTYPE svg PUBLIC "-//W3C//DTD SVG 1.1//EN" "http://www.w3.org/Graphics/SVG/1.1/DTD/svg11.dtd" >
<svg xmlns="http://www.w3.org/2000/svg">
<metadata></metadata>
<defs>
<font id="proxima_nova_condensedSBd" horiz-adv-x="1178" >
<font-face units-per-em="2048" ascent="1618" descent="-430" />
<missing-glyph horiz-adv-x="462" />
<glyph unicode="&#xfb01;" horiz-adv-x="1073" d="M35 868v190h138v97q0 155 78 241.5t209 86.5q100 0 161 -34l-44 -174q-26 20 -69 20q-36 0 -62.5 -16.5t-40.5 -48t-14 -75.5v-97h174v-190h-174v-868h-218v868h-138zM699 1328q0 57 40.5 96.5t97.5 39.5q56 0 96 -39.5t40 -96.5q0 -56 -40 -96t-96 -40q-57 0 -97.5 40 t-40.5 96zM728 0v1058h217v-1058h-217z" />
<glyph unicode="&#xfb02;" horiz-adv-x="1073" d="M35 868v190h138v97q0 155 78 241.5t209 86.5q100 0 161 -34l-44 -174q-26 20 -69 20q-36 0 -62.5 -16.5t-40.5 -48t-14 -75.5v-97h174v-190h-174v-868h-218v868h-138zM728 0v1462h217v-1462h-217z" />
<glyph unicode="&#xfb03;" horiz-adv-x="1671" d="M35 868v190h138v97q0 155 79 241.5t219 86.5q137 0 211 -74l-73 -156q-39 42 -99 42q-38 0 -65 -17t-40.5 -48.5t-13.5 -74.5v-97h174v-190h-174v-868h-218v868h-138zM633 868v190h138v97q0 77 21 139.5t58.5 103.5t90.5 63t117 22q100 0 161 -34l-44 -174q-26 20 -69 20 q-55 0 -86 -37t-31 -103v-97h174v-190h-174v-868h-218v868h-138zM1295 1328q0 57 40.5 96.5t97.5 39.5q56 0 96 -39.5t40 -96.5q0 -56 -40 -96t-96 -40q-57 0 -97.5 40t-40.5 96zM1324 0v1058h217v-1058h-217z" />
<glyph unicode="&#xfb04;" horiz-adv-x="1671" d="M35 868v190h138v97q0 155 79 241.5t219 86.5q137 0 211 -74l-73 -156q-39 42 -99 42q-38 0 -65 -17t-40.5 -48.5t-13.5 -74.5v-97h174v-190h-174v-868h-218v868h-138zM633 868v190h138v97q0 77 21 139.5t58.5 103.5t90.5 63t117 22q100 0 161 -34l-44 -174q-26 20 -69 20 q-55 0 -86 -37t-31 -103v-97h174v-190h-174v-868h-218v868h-138zM1324 0v1462h217v-1462h-217z" />
<glyph horiz-adv-x="2048" />
<glyph horiz-adv-x="2048" />
<glyph unicode="&#xd;" horiz-adv-x="2048" />
<glyph unicode=" "  horiz-adv-x="462" />
<glyph unicode="&#x09;" horiz-adv-x="462" />
<glyph unicode="&#xa0;" horiz-adv-x="462" />
<glyph unicode="!" horiz-adv-x="529" d="M119 125q0 60 43 102.5t103.5 42.5t103.5 -42.5t43 -102.5q0 -61 -43 -103.5t-104 -42.5t-103.5 42.5t-42.5 103.5zM132 1462h267l-39 -1021h-189z" />
<glyph unicode="&#x22;" horiz-adv-x="816" d="M107 1361q0 50 37 86t88 36q50 0 86.5 -36t36.5 -86q0 -17 -18 -140.5t-36 -239.5l-19 -115h-100q-75 458 -75 495zM462 1361q0 33 16.5 61t45.5 44.5t63 16.5t62 -16.5t44.5 -44.5t16.5 -61q0 -17 -18.5 -140.5t-37.5 -239.5l-18 -115h-99q-75 458 -75 495z" />
<glyph unicode="#" horiz-adv-x="1148" d="M40 385l39 146h182l111 400h-182l38 143h186l107 388h169l-109 -388h184l107 388h167l-110 -388h182l-37 -143h-185l-113 -400h188l-40 -146h-190l-109 -385h-167l111 385h-186l-107 -385h-169l110 385h-177zM427 531h180l116 400h-184z" />
<glyph unicode="$" horiz-adv-x="1071" d="M55 160l123 189q53 -63 128 -105.5t163 -53.5v452q-37 16 -60.5 27t-58 29t-57 33.5t-51.5 37.5t-48 44t-38.5 51.5t-31 60.5t-19 69.5t-7.5 81.5q0 155 100.5 266t270.5 137v204h167v-202q203 -23 339 -155l-116 -184q-92 95 -223 118v-409q45 -21 76 -37t73 -41t70 -49 t58.5 -58.5t48.5 -71.5t30 -86t12 -105q0 -162 -96 -276.5t-272 -143.5v-202h-167v194q-254 19 -414 185zM347 1091q0 -53 31 -91.5t91 -72.5v329q-57 -19 -89.5 -61.5t-32.5 -103.5zM636 209q59 22 89.5 69t30.5 107q0 39 -16 72.5t-41 57.5t-63 48v-354z" />
<glyph unicode="%" horiz-adv-x="1451" d="M57 1120q0 157 88.5 260t231.5 103q94 0 167.5 -47.5t113 -130t39.5 -185.5q0 -101 -39.5 -183t-113 -130t-167.5 -48q-71 0 -131.5 28t-101.5 76.5t-64 115t-23 141.5zM213 1120q0 -97 45 -159t119 -62q29 0 54.5 10.5t45 30t33.5 46.5t21.5 61.5t7.5 72.5 q0 100 -44.5 162.5t-117.5 62.5q-49 0 -86.5 -28.5t-57.5 -79.5t-20 -117zM282 0l770 1462h125l-771 -1462h-124zM756 333q0 103 39.5 186t113 131.5t168 48.5t168 -48.5t112.5 -131.5t39 -186q0 -102 -39 -183.5t-112.5 -129t-168 -47.5t-168 47.5t-113 129t-39.5 183.5z M912 333q0 -64 20.5 -114.5t58 -79t85.5 -28.5q74 0 119 62t45 160q0 66 -20 117.5t-57.5 80t-86.5 28.5q-73 0 -118.5 -63t-45.5 -163z" />
<glyph unicode="&#x26;" d="M65 381q0 64 15 121t38.5 99.5t60 83t72 69t82.5 59.5q-92 188 -92 318q0 154 95 253t241 99q130 0 218 -83t88 -217q0 -34 -6 -66.5t-14.5 -59t-25 -53.5t-31 -47t-39 -43t-42 -38t-47 -36.5t-47.5 -33.5t-50 -32q55 -96 113 -176q55 -81 115 -161q66 134 107 295 l178 -81q-73 -222 -167 -371q60 -74 232 -280h-260q-65 79 -97 121q-151 -148 -344 -148q-83 0 -154 27t-124.5 77.5t-84 128.5t-30.5 175zM291 397q0 -74 28.5 -131.5t74 -87t99.5 -29.5q102 0 201 110q-112 147 -148 203q-58 84 -128 197q-127 -111 -127 -262zM449 1129 q0 -86 55 -209q44 29 74.5 53t58.5 55.5t41.5 68t13.5 78.5q0 71 -31.5 108.5t-79.5 37.5q-40 0 -69.5 -21.5t-46 -65.5t-16.5 -105z" />
<glyph unicode="'" horiz-adv-x="462" d="M107 1361q0 50 37 86t88 36q50 0 86.5 -36t36.5 -86q0 -17 -18 -140.5t-36 -239.5l-19 -115h-100q-75 458 -75 495z" />
<glyph unicode="(" horiz-adv-x="562" d="M98 532.5q0 263.5 71 511t205 457.5l147 -85q-94 -215 -140 -423.5t-46 -459.5q0 -250 46.5 -460t139.5 -422l-147 -88q-133 210 -204.5 458t-71.5 511.5z" />
<glyph unicode=")" horiz-adv-x="562" d="M42 -349l144 -88q135 211 206.5 459t71.5 511q0 175 -32.5 345.5t-94.5 327t-151 295.5l-144 -85q93 -218 139.5 -426t46.5 -457t-46.5 -458t-139.5 -424z" />
<glyph unicode="*" horiz-adv-x="722" d="M48 1045l220 112l-220 112l59 101l207 -134l-11 247h118l-13 -247l207 134l60 -101l-219 -112l219 -112l-60 -102l-207 133l13 -246h-118l11 246l-207 -133z" />
<glyph unicode="+" horiz-adv-x="966" d="M63 669v142h343v375h155v-375h342v-142h-342v-393h-155v393h-343z" />
<glyph unicode="," horiz-adv-x="531" d="M119 127q0 60 41.5 101.5t100.5 41.5q69 0 115.5 -52t46.5 -141q0 -108 -54.5 -205t-144.5 -159l-99 80q54 32 99 91.5t54 113.5q-8 -4 -35 -4q-54 0 -89 37t-35 96z" />
<glyph unicode="-" horiz-adv-x="590" d="M65 437v188h461v-188h-461z" />
<glyph unicode="." horiz-adv-x="529" d="M119 125q0 59 43.5 102t102.5 43q61 0 104 -42.5t43 -102.5q0 -61 -43 -103.5t-104 -42.5q-59 0 -102.5 43t-43.5 103z" />
<glyph unicode="/" horiz-adv-x="579" d="M0 -44l421 1549h160l-421 -1549h-160z" />
<glyph unicode="0" horiz-adv-x="1156" d="M86 730q0 94 12 183t36.5 174.5t65 156.5t93.5 125t126.5 84t159.5 30q74 0 139 -22.5t114.5 -62.5t90 -96t68.5 -122t47 -141t27.5 -152t8.5 -157q0 -94 -12 -183.5t-36.5 -175.5t-65 -157t-94 -125.5t-127 -85t-160.5 -30.5q-86 0 -159.5 30.5t-126.5 85t-93.5 126 t-65 157t-36.5 175t-12 183.5zM333 730q0 -542 246 -542q247 0 247 542q0 539 -247 539q-246 0 -246 -539z" />
<glyph unicode="1" horiz-adv-x="770" d="M25 1060l393 402h213v-1462h-244v1148l-220 -234z" />
<glyph unicode="2" horiz-adv-x="1117" d="M79 1247q83 114 201 175t264 61q129 0 231.5 -49.5t163 -147t60.5 -228.5q0 -50 -11.5 -100t-30 -97.5t-55.5 -106t-75 -110.5t-101.5 -127t-121.5 -140t-148 -164h550v-213h-903v197l10 10q411 425 526 571t115 278q0 65 -29.5 114t-78 74t-107.5 25q-192 0 -311 -173z " />
<glyph unicode="3" horiz-adv-x="1090" d="M52 213l151 149q36 -53 83.5 -91t107 -60.5t123.5 -22.5q120 0 182 62.5t62 170.5q0 59 -19.5 102t-55.5 68t-81.5 37t-102.5 12q-83 0 -125 -4v219q21 -2 121 -2q109 0 175.5 51.5t66.5 151.5q0 104 -63 158.5t-167 54.5q-174 0 -295 -158l-144 138q75 110 193 172 t265 62q100 0 182 -25t142 -73.5t93 -123t33 -170.5q0 -127 -78.5 -219.5t-190.5 -115.5q54 -8 105.5 -36.5t93 -73t67.5 -109.5t26 -138q0 -93 -33 -171.5t-93.5 -135t-150.5 -88t-199 -31.5q-158 0 -281.5 67t-192.5 173z" />
<glyph unicode="4" horiz-adv-x="1079" d="M48 337v209l521 916h309v-910h155v-215h-155v-337h-240v337h-590zM268 552h370v655z" />
<glyph unicode="5" horiz-adv-x="1125" d="M98 209l151 153q114 -174 307 -174q109 0 175 79t66 191q0 85 -27.5 146t-79.5 92.5t-123 31.5q-75 0 -135.5 -30.5t-115.5 -97.5l-178 51v811h824v-213h-581v-436q44 56 116 90.5t154 34.5q65 0 124 -19.5t108 -59.5t84.5 -96t55.5 -132.5t20 -166.5 q0 -142 -59.5 -253.5t-169.5 -174.5t-251 -63q-160 0 -273 60.5t-192 175.5z" />
<glyph unicode="6" horiz-adv-x="1123" d="M86 730q0 126 21 238t65.5 206.5t108.5 163t154 107t198 38.5q113 0 206 -44.5t154 -123.5l-123 -175q-45 64 -100.5 96.5t-133.5 32.5q-74 0 -133.5 -42t-96 -113t-56 -159.5t-19.5 -185.5v-35q27 53 72.5 97t110.5 73t134 29q83 0 154.5 -30.5t126.5 -88t87 -148 t32 -204.5q0 -101 -32.5 -190t-90 -155.5t-143.5 -105t-188 -38.5q-91 0 -167 28t-131 79.5t-96 120.5t-65.5 154.5t-36.5 178.5t-12 196zM333 544q3 -50 11 -96t27 -94.5t45.5 -84t69 -58.5t95.5 -23q54 0 97.5 23.5t70 62t40 85t13.5 95.5q0 71 -17.5 125t-49.5 85 t-71.5 46t-86.5 15q-75 0 -139.5 -51t-104.5 -130z" />
<glyph unicode="7" horiz-adv-x="985" d="M50 1249v213h891v-169l-466 -1293h-262l454 1249h-617z" />
<glyph unicode="8" horiz-adv-x="1114" d="M83 368q0 45 11 88.5t30.5 81t46.5 71.5t59 61t67.5 48.5t72.5 35.5q-54 20 -100.5 51t-84.5 74.5t-60 102t-22 124.5q0 77 25.5 140.5t69 106.5t102 73t124 43.5t135.5 13.5q69 0 133.5 -13.5t123 -43.5t102 -73t69 -106.5t25.5 -140.5q0 -66 -22 -124.5t-60 -102 t-84 -74.5t-99 -51q56 -21 107 -58.5t91.5 -86t65 -111.5t24.5 -130q0 -92 -35.5 -166.5t-99 -124.5t-151 -77t-190.5 -27q-141 0 -248 46.5t-167.5 136.5t-60.5 212zM326 401q0 -99 66 -156t167 -57q97 0 163.5 57.5t66.5 155.5q0 46 -18.5 88t-46 70t-60 49.5t-59.5 32.5 t-46 14q-21 -3 -48.5 -14t-60 -32.5t-60 -50t-46 -70t-18.5 -87.5zM347 1067q0 -42 16.5 -79t41 -61.5t55 -43.5t54.5 -28t45 -14q20 5 43.5 14t54.5 28t55 43.5t40.5 61.5t16.5 79q0 93 -58 147.5t-152 54.5q-64 0 -112 -24.5t-74 -70t-26 -107.5z" />
<glyph unicode="9" horiz-adv-x="1123" d="M77 997q0 101 32 190.5t90 155.5t144 104.5t188 38.5q91 0 166.5 -28t130.5 -79t96 -120t66 -155t37 -178.5t12 -195.5q0 -126 -21.5 -238.5t-66 -207t-108.5 -163.5t-154 -107.5t-198 -38.5q-112 0 -205.5 45.5t-153.5 123.5l123 176q45 -65 99.5 -97.5t134.5 -32.5 q75 0 135 43t96 114.5t54.5 159t18.5 183.5v35q-42 -82 -128.5 -140.5t-189.5 -58.5q-66 0 -125 19t-109 57.5t-86.5 94t-57 132.5t-20.5 168zM322 1006q0 -72 18 -125.5t50 -85t71.5 -46.5t86.5 -15q74 0 137 51t106 131q-3 49 -11.5 95t-26.5 94.5t-44.5 84t-68.5 58.5 t-94 23q-55 0 -99 -23t-70.5 -62t-40.5 -85t-14 -95z" />
<glyph unicode=":" horiz-adv-x="521" d="M119 125q0 59 43.5 102t102.5 43q61 0 104 -42.5t43 -102.5q0 -61 -43 -103.5t-104 -42.5q-59 0 -102.5 43t-43.5 103zM119 926.5q0 59.5 43.5 103.5t102.5 44q61 0 104 -44t43 -103.5t-43 -103t-104 -43.5q-59 0 -102.5 43.5t-43.5 103z" />
<glyph unicode=";" horiz-adv-x="529" d="M119 132q0 59 41.5 101.5t100.5 42.5q69 0 115.5 -51.5t46.5 -141.5q0 -109 -54 -205t-145 -160l-99 81q55 34 99.5 92.5t53.5 112.5q-8 -4 -35 -4q-53 0 -88.5 37t-35.5 95zM119 927q0 60 43.5 103.5t102.5 43.5q61 0 104 -43t43 -104q0 -60 -43 -103.5t-104 -43.5 q-59 0 -102.5 43.5t-43.5 103.5z" />
<glyph unicode="&#x3c;" horiz-adv-x="966" d="M63 655v156l840 385v-168l-671 -296l671 -291v-169z" />
<glyph unicode="=" horiz-adv-x="966" d="M63 452v142h840v-142h-840zM63 870v142h840v-142h-840z" />
<glyph unicode="&#x3e;" horiz-adv-x="966" d="M63 272v169l673 291l-673 296v168l840 -385v-156z" />
<glyph unicode="?" horiz-adv-x="853" d="M48 1313q71 82 169 126t212 44q172 0 276 -92t104 -234q0 -54 -14 -102t-37 -83.5t-52 -70t-59.5 -61.5t-59.5 -57t-51.5 -57t-36.5 -60.5t-14 -69.5q0 -27 12.5 -55.5t31.5 -47.5l-182 -68q-69 75 -69 188q0 53 16 98.5t41 79.5t55.5 64.5t60.5 59t55 57t41 65t16 76.5 q0 31 -11.5 59t-32.5 50.5t-55 35.5t-77 13q-128 0 -218 -112zM278 125q0 39 20 72.5t54 53t73 19.5q61 0 104 -42.5t43 -102.5q0 -61 -43 -103.5t-104 -42.5q-60 0 -103.5 43t-43.5 103z" />
<glyph unicode="@" horiz-adv-x="1539" d="M77 504q0 116 30.5 230t84 212t129.5 182.5t164.5 143.5t192 92.5t209.5 33.5q170 0 301.5 -77.5t203.5 -215.5t72 -314q0 -107 -21.5 -203.5t-58.5 -168.5t-85 -125t-103 -80.5t-111 -27.5q-81 0 -132.5 45.5t-60.5 115.5l-3 15q-25 -38 -55 -68.5t-66 -55.5 t-78.5 -38.5t-87.5 -13.5q-120 0 -195.5 83t-75.5 237q0 111 36.5 218t97 188t146 131.5t178.5 50.5q81 0 136.5 -42.5t82.5 -110.5l25 117h194l-121 -567q-4 -21 -4 -50q-1 -53 19 -78.5t58 -25.5q23 0 49 17t52.5 54.5t48.5 89.5t35.5 128.5t13.5 164.5q0 242 -135 385 t-360 143q-97 0 -190.5 -31.5t-172.5 -87t-146 -133t-114 -166.5t-73.5 -191t-26.5 -204q0 -124 38 -231.5t105.5 -185t167.5 -122t219 -44.5q184 0 360 123l41 -61q-197 -138 -412 -138q-177 0 -314.5 83.5t-212.5 233t-75 340.5zM535 529q0 -85 38.5 -134.5t110.5 -49.5 q127 0 230 159l63 301q-15 52 -53.5 91t-97.5 39q-64 0 -120 -37.5t-92.5 -97.5t-57.5 -131t-21 -140z" />
<glyph unicode="A" d="M6 0l439 1462h289l439 -1462h-261l-82 289h-481l-81 -289h-262zM397 504h385l-192 699z" />
<glyph unicode="B" horiz-adv-x="1184" d="M140 0v1462h554q53 0 99.5 -10t84 -28t69 -43.5t54.5 -57t38.5 -69t23.5 -79t8 -86.5q0 -133 -64 -221t-166 -114q108 -16 181.5 -120t73.5 -239q0 -87 -24.5 -158.5t-71 -124.5t-121 -82.5t-169.5 -29.5h-570zM381 213h270q95 0 145 55.5t50 158.5q0 44 -12 82.5 t-36 67.5t-61.5 46t-85.5 17h-270v-427zM381 853h259q91 0 136.5 53t45.5 144q0 89 -46 144t-136 55h-259v-396z" />
<glyph unicode="C" horiz-adv-x="1202" d="M86 729.5q0 164.5 42 304t118.5 240t189 156.5t248.5 56q74 0 139 -18.5t113 -48t89.5 -73t69.5 -87t53 -96.5l-199 -89q-27 60 -64.5 103.5t-89 68.5t-111.5 25q-106 0 -186 -70t-122.5 -192.5t-42.5 -279t42.5 -279t122.5 -192.5t186 -70q91 0 160 59t105 156l201 -87 q-25 -56 -53 -102t-69.5 -92t-89.5 -77.5t-113.5 -51.5t-140.5 -20q-136 0 -248.5 56.5t-189 156.5t-118.5 239.5t-42 304z" />
<glyph unicode="D" horiz-adv-x="1279" d="M140 0v1462h437q146 0 263.5 -55.5t194.5 -153.5t118 -231.5t41 -291.5q0 -160 -40.5 -293.5t-117.5 -231t-194 -151.5t-263 -54h-439zM381 213h196q117 0 201.5 66.5t126.5 182t42 268.5q0 156 -41 271.5t-125 181.5t-204 66h-196v-1036z" />
<glyph unicode="E" horiz-adv-x="1035" d="M140 0v1462h803v-213h-562v-396h546v-213h-546v-427h562v-213h-803z" />
<glyph unicode="F" horiz-adv-x="1016" d="M140 0v1462h803v-213h-562v-396h546v-213h-546v-640h-241z" />
<glyph unicode="G" horiz-adv-x="1265" d="M86 730q0 168 43 309t120.5 239.5t189 153t245.5 54.5q69 0 131.5 -16t111.5 -44t91.5 -68t74 -85t57.5 -98l-194 -94q-45 86 -113.5 138t-158.5 52q-104 0 -183.5 -65t-123.5 -188t-44 -288q0 -248 96.5 -395t254.5 -147q39 0 77 9t69.5 23.5t56.5 33t44 39.5v272h-310 v213h538v-581q-88 -107 -208 -165.5t-267 -58.5q-179 0 -315 94.5t-209.5 266.5t-73.5 396z" />
<glyph unicode="H" horiz-adv-x="1303" d="M140 0v1462h241v-603h541v603h241v-1462h-241v644h-541v-644h-241z" />
<glyph unicode="I" horiz-adv-x="521" d="M140 0v1462h241v-1462h-241z" />
<glyph unicode="J" horiz-adv-x="897" d="M17 94l94 191q82 -97 196 -97q98 0 154 59t56 165v1050h244v-1059q0 -108 -32 -191t-90 -135t-136 -78t-175 -26q-190 0 -311 121z" />
<glyph unicode="K" horiz-adv-x="1173" d="M140 0v1462h241v-703l458 703h283l-478 -691l515 -771h-287l-377 602l-114 -168v-434h-241z" />
<glyph unicode="L" horiz-adv-x="939" d="M132 0v1462h240v-1249h511v-213h-751z" />
<glyph unicode="M" horiz-adv-x="1564" d="M140 0v1462h327l315 -952l318 952h324v-1462h-238v1069l-358 -1069h-92l-355 1069v-1069h-241z" />
<glyph unicode="N" horiz-adv-x="1301" d="M140 0v1462h245l533 -958v958h243v-1462h-232l-548 987v-987h-241z" />
<glyph unicode="O" horiz-adv-x="1347" d="M86 730q0 161 39.5 299t113.5 240t185.5 159.5t248.5 57.5t249 -57.5t186 -159.5t114.5 -240t40.5 -299t-40.5 -299.5t-114.5 -240t-186 -159.5t-249 -58t-248.5 58t-185.5 159.5t-113.5 240t-39.5 299.5zM333 730q0 -155 38.5 -276t116.5 -193.5t185 -72.5t185 72.5 t116 193.5t38 276t-38.5 276t-116 193t-184.5 72t-185 -71.5t-116.5 -193t-38.5 -276.5z" />
<glyph unicode="P" horiz-adv-x="1127" d="M140 0v1462h498q84 0 155.5 -24t122 -66t86 -99.5t52.5 -124t17 -140.5q0 -93 -28 -174.5t-80.5 -144t-136.5 -99t-188 -36.5h-257v-554h-241zM381 767h228q65 0 114 30t75 84.5t26 126.5q0 108 -58.5 174.5t-156.5 66.5h-228v-482z" />
<glyph unicode="Q" horiz-adv-x="1347" d="M86 730q0 161 39.5 299t113.5 240t185.5 159.5t248.5 57.5t249 -57.5t186 -159.5t114.5 -240t40.5 -299q0 -188 -53.5 -342.5t-153.5 -255.5l66 -105l-169 -104l-61 94q-99 -44 -219 -44q-137 0 -248.5 58t-185.5 159.5t-113.5 240t-39.5 299.5zM333 730 q0 -155 38.5 -276t116.5 -193.5t185 -72.5q46 0 98 19l-160 253l171 105l140 -224q90 147 90 389q0 155 -38.5 276t-116 193t-184.5 72t-185 -71.5t-116.5 -193t-38.5 -276.5z" />
<glyph unicode="R" horiz-adv-x="1171" d="M140 0v1462h504q192 0 311 -125t119 -327q0 -74 -16 -137.5t-42.5 -109t-62 -81t-73.5 -56.5t-80 -32l285 -594h-272l-250 552h-182v-552h-241zM381 767h228q65 0 114 30t75 84.5t26 126.5t-26 126.5t-75 84.5t-114 30h-228v-482z" />
<glyph unicode="S" horiz-adv-x="1068" d="M48 160l123 189q63 -72 154 -116.5t194 -44.5q45 0 83 10.5t65 29t45.5 43.5t27.5 53.5t9 60.5q0 44 -18.5 80t-50 61t-73.5 49.5t-89.5 43.5t-97 43t-97 48.5t-89.5 60t-73.5 77t-50 100t-18.5 128.5q0 85 33 160.5t91.5 130.5t144.5 87t187 32q260 0 420 -160 l-115 -184q-124 127 -312 127q-89 0 -145.5 -49t-56.5 -129q0 -42 22.5 -76.5t60.5 -60.5t87.5 -49.5t104 -48t109 -51.5t104 -64.5t87.5 -82.5t60.5 -110.5t22.5 -144.5q0 -89 -30.5 -166.5t-88.5 -136.5t-150 -93t-207 -34q-293 0 -473 187z" />
<glyph unicode="T" horiz-adv-x="1016" d="M50 1249v213h914v-213h-335v-1249h-242v1249h-337z" />
<glyph unicode="U" horiz-adv-x="1298" d="M140 493v969h243v-971q0 -147 69.5 -225t198.5 -78q127 0 196 78t69 225v971h243v-969q0 -247 -135.5 -383.5t-372.5 -136.5q-239 0 -375 136.5t-136 383.5z" />
<glyph unicode="V" d="M6 1462h262l322 -1173l322 1173h261l-439 -1462h-289z" />
<glyph unicode="W" horiz-adv-x="1636" d="M21 1462h261l211 -1090l228 1090h195l228 -1090l211 1090h260l-331 -1462h-254l-210 1048l-213 -1048h-252z" />
<glyph unicode="X" d="M6 0l435 747l-410 715h280l279 -527l278 527h280l-410 -713l437 -749h-280l-305 554l-305 -554h-279z" />
<glyph unicode="Y" horiz-adv-x="1148" d="M0 1462h268l307 -625l306 625h267l-454 -853v-609h-240v609z" />
<glyph unicode="Z" horiz-adv-x="1044" d="M83 0v201l570 1048h-570v213h864v-197l-575 -1052h590v-213h-879z" />
<glyph unicode="[" horiz-adv-x="500" d="M86 -416v1902h378v-152h-217v-1599h217v-151h-378z" />
<glyph unicode="\" horiz-adv-x="579" d="M0 1505h163l420 -1549h-162z" />
<glyph unicode="]" horiz-adv-x="500" d="M37 -265h218v1599h-218v152h379v-1902h-379v151z" />
<glyph unicode="^" horiz-adv-x="845" d="M42 730l299 732h163l301 -732h-167l-215 567l-216 -567h-165z" />
<glyph unicode="_" horiz-adv-x="924" d="M-6 -88h937v-151h-937v151z" />
<glyph unicode="`" horiz-adv-x="444" d="M0 1534h201l244 -315h-150z" />
<glyph unicode="a" horiz-adv-x="1027" d="M75 324q0 67 17.5 124t48 97.5t71.5 69t88.5 42.5t98.5 14q86 0 161 -33.5t119 -98.5v158q0 47 -13.5 85t-40 63.5t-65 39.5t-87.5 14q-144 0 -264 -123l-86 153q77 78 179 117t211 39q85 0 154 -20.5t121.5 -62.5t81.5 -112.5t29 -164.5v-725h-220v111 q-30 -45 -75.5 -76.5t-97.5 -46.5t-107 -15q-51 0 -98.5 15t-88.5 44.5t-71.5 71t-48 98.5t-17.5 122zM293 322q0 -56 22.5 -101t65 -70.5t96.5 -25.5q65 0 119 27t83 82v174q-29 56 -83 83.5t-119 27.5q-82 0 -133 -55.5t-51 -141.5z" />
<glyph unicode="b" horiz-adv-x="1083" d="M129 0v1462h218v-546q47 82 120.5 125.5t153.5 43.5q118 0 206 -69t134.5 -195t46.5 -292q0 -257 -104.5 -406.5t-282.5 -149.5q-81 0 -154 44.5t-120 122.5v-140h-218zM347 311q30 -62 88 -103t121 -41q74 0 126 48.5t77 129t25 184.5q0 105 -25 186t-77 129t-126 48 q-62 0 -120 -42.5t-89 -104.5v-434z" />
<glyph unicode="c" horiz-adv-x="913" d="M77 531q0 158 56.5 283.5t163 198t244.5 72.5q211 0 325 -142l-110 -150q-77 99 -191 99q-81 0 -141.5 -48.5t-90.5 -130t-30 -183t30 -183t90.5 -131t141.5 -49.5q112 0 191 98l110 -148q-112 -144 -325 -144q-138 0 -244.5 72.5t-163 199t-56.5 286.5z" />
<glyph unicode="d" horiz-adv-x="1083" d="M77 529q0 124 27 227.5t77 176t122.5 112.5t160.5 40q82 0 155 -43.5t119 -125.5v546h218v-1462h-218v140q-47 -78 -120 -122.5t-154 -44.5q-178 0 -282.5 149.5t-104.5 406.5zM303 529q0 -104 24.5 -184.5t77 -129t126.5 -48.5q41 0 82.5 19.5t73.5 52.5t51 72v436 q-29 61 -87 103t-120 42q-75 0 -127 -48.5t-76.5 -129t-24.5 -185.5z" />
<glyph unicode="e" horiz-adv-x="1042" d="M77 531q0 115 32 216t89.5 176t144 118.5t190.5 43.5q85 0 156.5 -28t123.5 -78.5t88 -120.5t54 -154.5t18 -180.5v-65h-674q4 -88 36 -156t94 -108.5t148 -40.5q66 0 130 30t110 85l105 -132q-46 -51 -104 -87.5t-125 -56t-139 -19.5q-143 0 -252 71t-167 197t-58 290z M295 613h468q-1 42 -8.5 81.5t-25 78.5t-43.5 67.5t-66 46.5t-89 18q-48 0 -88 -18t-66 -47t-44.5 -68t-27 -78.5t-10.5 -80.5z" />
<glyph unicode="f" horiz-adv-x="598" d="M35 868v190h138v97q0 155 79 241.5t219 86.5q137 0 211 -74l-73 -156q-39 42 -99 42q-38 0 -65 -17t-40.5 -48.5t-13.5 -74.5v-97h174v-190h-174v-868h-218v868h-138z" />
<glyph unicode="g" horiz-adv-x="1083" d="M77 541q0 252 104 398t283 146q82 0 154.5 -43t119.5 -126v142h218v-1041q0 -100 -26 -178.5t-69 -128t-103 -81.5t-124 -45t-136 -13q-118 0 -208.5 31.5t-168.5 104.5l92 170q105 -118 274 -118q52 0 96 14.5t79.5 44.5t55.5 81t20 118v154q-47 -80 -120 -125.5 t-154 -45.5q-119 0 -206 64t-134 186t-47 291zM303 541q0 -158 58.5 -253t169.5 -95q61 0 120 41.5t87 102.5v410q-18 39 -51 72.5t-74.5 53t-81.5 19.5q-75 0 -127 -45.5t-76.5 -123.5t-24.5 -182z" />
<glyph unicode="h" horiz-adv-x="1064" d="M129 0v1462h220v-546q46 69 130.5 119t177.5 50q278 0 278 -285v-800h-216v723q0 46 -10.5 79t-31 52.5t-48.5 28.5t-64 9q-45 0 -89 -22t-75 -54.5t-52 -70.5v-745h-220z" />
<glyph unicode="i" horiz-adv-x="475" d="M101 1328q0 57 40.5 96.5t97.5 39.5q56 0 95.5 -39.5t39.5 -96.5q0 -22 -6.5 -43t-19 -37.5t-29.5 -29t-37.5 -19.5t-42.5 -7q-57 0 -97.5 40t-40.5 96zM129 0v1058h218v-1058h-218z" />
<glyph unicode="j" horiz-adv-x="475" d="M-149 -362l61 169q45 -48 103 -48q53 0 83.5 37t30.5 114v1148h218v-1148q0 -339 -310 -339q-62 0 -104.5 16t-81.5 51zM101 1328q0 57 40.5 96.5t97.5 39.5q56 0 95.5 -39.5t39.5 -96.5q0 -22 -6.5 -43t-19 -37.5t-29.5 -29t-37.5 -19.5t-42.5 -7q-57 0 -97.5 40 t-40.5 96z" />
<glyph unicode="k" horiz-adv-x="1000" d="M129 0v1462h218v-923l376 519h254l-350 -475l357 -583h-256l-253 443l-128 -171v-272h-218z" />
<glyph unicode="l" horiz-adv-x="475" d="M129 0v1462h218v-1462h-218z" />
<glyph unicode="m" horiz-adv-x="1583" d="M129 0v1058h218v-142q23 39 65.5 76.5t105 65t124.5 27.5q101 0 165 -49t82 -137q42 75 127.5 130.5t179.5 55.5q124 0 191.5 -68.5t67.5 -209.5v-807h-217v734q0 158 -134 158q-61 0 -116.5 -43.5t-86.5 -103.5v-745h-217v734q0 158 -134 158q-61 0 -115.5 -43.5 t-87.5 -103.5v-745h-218z" />
<glyph unicode="n" horiz-adv-x="1064" d="M129 0v1058h218v-142q48 70 132.5 119.5t177.5 49.5q140 0 209 -74.5t69 -215.5v-795h-218v721q0 91 -39 131t-113 40q-66 0 -125 -43.5t-93 -103.5v-745h-218z" />
<glyph unicode="o" horiz-adv-x="1073" d="M77 531q0 90 18.5 172t57 152t92.5 121t129 80t163 29q74 0 138.5 -20.5t114.5 -57t89.5 -87.5t65.5 -113t39 -131.5t13 -144.5q0 -90 -18.5 -172.5t-57 -153t-92.5 -122t-129 -81t-163 -29.5t-163 29.5t-129 81t-92.5 122t-57 153t-18.5 172.5zM303 531q0 -74 14 -138.5 t41.5 -115.5t73.5 -80.5t105 -29.5t104.5 29.5t73 80.5t41 115t13.5 139q0 73 -13.5 137t-41 115t-73 80t-104.5 29t-105 -29t-73.5 -80t-41.5 -115t-14 -137z" />
<glyph unicode="p" horiz-adv-x="1081" d="M129 -403v1461h218v-140q47 78 120 122.5t154 44.5q119 0 206.5 -67t134 -192.5t46.5 -294.5q0 -168 -46.5 -294t-134 -195t-206.5 -69q-82 0 -154.5 43.5t-119.5 125.5v-545h-218zM347 311q29 -60 88 -102t121 -42q56 0 99.5 27.5t71 77t41.5 115t14 144.5 q0 104 -24.5 184t-76 128.5t-125.5 48.5q-62 0 -120.5 -41t-88.5 -102v-438z" />
<glyph unicode="q" horiz-adv-x="1081" d="M75 531q0 256 103.5 405t283.5 149q81 0 154 -44.5t120 -122.5v140h217v-1461h-217v545q-47 -82 -120 -125.5t-154 -43.5q-119 0 -206.5 69t-134 195t-46.5 294zM301 531q0 -106 24.5 -186.5t76.5 -129t127 -48.5q40 0 81.5 20t74 53t51.5 71v438q-30 61 -88 102t-119 41 q-75 0 -127 -48.5t-76.5 -128.5t-24.5 -184z" />
<glyph unicode="r" horiz-adv-x="674" d="M129 0v1058h218v-155q49 80 127.5 130t165.5 50v-217q-26 6 -57 6q-65 0 -134 -43.5t-102 -103.5v-725h-218z" />
<glyph unicode="s" horiz-adv-x="880" d="M46 125l98 153q50 -57 127.5 -94t157.5 -37q83 0 130.5 37t47.5 101q0 29 -15 53.5t-40 40.5t-58.5 31.5t-71.5 28t-78 29t-78 33.5t-71.5 43.5t-58.5 58.5t-40 78t-15 101q0 62 25 117t70.5 96.5t115.5 65.5t155 24q207 0 350 -136l-94 -149q-40 48 -108.5 80t-145.5 32 q-72 0 -117 -36t-45 -87q0 -30 18 -54t48.5 -40.5t70.5 -31.5t84 -31t88 -34.5t84 -46t70.5 -61.5t48.5 -85t18 -114q0 -140 -104 -229t-279 -89q-120 0 -220 39.5t-168 112.5z" />
<glyph unicode="t" horiz-adv-x="617" d="M31 868v190h138v290h216v-290h176v-190h-176v-586q0 -55 20.5 -85t61.5 -30q25 0 48 9.5t35 24.5l52 -166q-69 -62 -190 -62q-83 0 -137 30t-80 88t-26 145v632h-138z" />
<glyph unicode="u" horiz-adv-x="1064" d="M129 259v799h218v-723q0 -90 39 -129t114 -39q45 0 88.5 21t75 52t53.5 69v749h216v-1058h-216v138q-48 -69 -131 -117t-178 -48q-279 0 -279 286z" />
<glyph unicode="v" horiz-adv-x="945" d="M2 1058h234l237 -797l240 797h232l-355 -1058h-235z" />
<glyph unicode="w" horiz-adv-x="1465" d="M15 1058h226l186 -771l202 771h201l209 -771l184 771h228l-285 -1058h-228l-206 776l-203 -776h-228z" />
<glyph unicode="x" horiz-adv-x="933" d="M13 0l318 539l-300 519h239l197 -364l197 364h239l-303 -519l320 -539h-238l-215 383l-214 -383h-240z" />
<glyph unicode="y" horiz-adv-x="945" d="M2 1058h234l237 -795l240 795h232l-422 -1255q-44 -127 -118 -178.5t-192 -53.5q-26 0 -63 4.5t-56 10.5l33 193q24 -15 68 -15q45 0 74 20t47 69l46 128z" />
<glyph unicode="z" horiz-adv-x="876" d="M83 0v167l427 701h-427v190h701v-159l-429 -709h438v-190h-710z" />
<glyph unicode="{" horiz-adv-x="533" d="M11 469v131q55 0 84.5 42t29.5 107v452q0 83 39.5 149.5t101.5 101t133 34.5h99v-152h-99q-30 0 -55.5 -16t-41 -47t-15.5 -70v-471q0 -152 -101 -195q101 -43 101 -196v-471q0 -58 32.5 -95.5t79.5 -37.5h99v-151h-99q-53 0 -102 20.5t-87.5 56.5t-61.5 90t-23 117v452 q0 64 -29.5 106.5t-84.5 42.5z" />
<glyph unicode="|" horiz-adv-x="429" d="M140 -44v1549h151v-1549h-151z" />
<glyph unicode="}" horiz-adv-x="533" d="M37 -265h99q47 0 79 37.5t32 95.5v471q0 153 102 196q-102 43 -102 195v471q0 59 -32 96t-79 37h-99v152h99q71 0 133 -34.5t101.5 -101t39.5 -149.5v-452q0 -65 29 -107t84 -42v-131q-55 0 -84 -42t-29 -107v-452q0 -83 -39.5 -149.5t-101.5 -100.5t-133 -34h-99v151z " />
<glyph unicode="~" horiz-adv-x="1002" d="M59 931q3 56 8.5 104.5t16 104t24.5 100t36 86.5t49.5 70.5t66 45.5t85.5 17q45 0 81 -17t57.5 -45.5t39 -65t27.5 -74.5t21 -74.5t21 -65t27.5 -46t39.5 -17.5q59 0 87.5 98t44.5 310l154 -15q-4 -58 -9.5 -105.5t-16 -104t-24 -100.5t-35.5 -87t-49.5 -71t-66 -45.5 t-85.5 -17.5q-45 0 -80.5 17.5t-57 45.5t-38.5 64.5t-27 74t-21.5 74t-22 65t-27.5 45.5t-40 17q-59 0 -86.5 -96.5t-45.5 -308.5z" />
<glyph unicode="&#xa1;" horiz-adv-x="529" d="M119 933q0 30 11.5 57.5t31 47t46.5 31.5t57 12q60 0 103.5 -43.5t43.5 -104.5q0 -39 -20 -72.5t-54 -52.5t-73 -19q-60 0 -103 42t-43 102zM132 -403l39 1021h186l42 -1021h-267z" />
<glyph unicode="&#xa2;" horiz-adv-x="913" d="M77 531q0 210 98 358t266 185v164h161v-157q166 -18 264 -138l-110 -150q-64 83 -154 96v-720q87 13 154 96l110 -148q-93 -121 -264 -138v-198h-161v204q-168 36 -266 185t-98 361zM303 531q0 -110 35.5 -197t102.5 -131v652q-67 -44 -102.5 -130t-35.5 -194z" />
<glyph unicode="&#xa3;" horiz-adv-x="1033" d="M57 594v146h152q-25 40 -40 66.5t-32.5 67t-25.5 83.5t-8 91q0 91 37 172.5t99 138.5t144.5 90.5t170.5 33.5q148 0 255.5 -68t152.5 -196l-193 -99q-24 75 -74 119.5t-123 44.5q-85 0 -146.5 -66t-61.5 -175q0 -40 5.5 -74.5t20 -69.5t23.5 -52.5t32.5 -56.5t29.5 -50 h244v-146h-186q6 -37 6 -75q0 -79 -40 -156t-102 -124q42 20 96 20q23 0 45 -4t39 -10t34 -13.5t33 -15t32.5 -14t35.5 -10.5t39 -4q39 0 74.5 11.5t59.5 28.5t39 37l86 -192q-40 -44 -112.5 -73t-161.5 -29q-47 0 -88 10t-70 24t-56 28.5t-59 24t-66 9.5q-90 0 -219 -82 l-77 170q67 37 116.5 85.5t77 106t27.5 115.5q0 55 -29 132h-236z" />
<glyph unicode="&#xa4;" horiz-adv-x="1143" d="M79 301l122 122q-53 65 -81 145t-28 162q0 84 28 163.5t81 143.5l-122 124l61 62l125 -123q64 54 143.5 81.5t163.5 27.5q83 0 163 -28t143 -81l124 123l63 -62l-122 -124q52 -64 80.5 -143.5t28.5 -163.5q0 -55 -12.5 -109t-37 -104.5t-59.5 -93.5l122 -122l-63 -65 l-124 126q-63 -55 -143 -84t-163 -29t-163 29t-144 84l-125 -126zM197 730q0 -102 50.5 -188t137 -136.5t188 -50.5t188 50.5t136.5 136.5t50 188q0 77 -29.5 146.5t-80 119t-119.5 79t-145.5 29.5t-146 -29.5t-119.5 -79t-80 -119t-30 -146.5z" />
<glyph unicode="&#xa5;" horiz-adv-x="1148" d="M0 1462h268l307 -625l306 625h267l-379 -711h327v-142h-402v-208h402v-140h-402v-261h-240v261h-404v140h404v208h-404v142h327z" />
<glyph unicode="&#xa6;" horiz-adv-x="429" d="M140 -44v692h151v-692h-151zM140 813v692h151v-692h-151z" />
<glyph unicode="&#xa7;" horiz-adv-x="889" d="M48 -25l96 144q47 -54 122 -95t159 -41q55 0 96.5 19t63.5 52.5t22 77.5q0 32 -15 59t-40 45.5t-58.5 35.5t-71.5 30.5t-78 30.5t-78 34t-71.5 43.5t-58.5 57.5t-40 75.5t-15 98.5q0 95 58.5 165t147.5 98q-71 36 -116 78t-67.5 93.5t-22.5 115.5q0 126 100.5 208.5 t257.5 82.5q226 0 356 -138l-92 -131q-101 114 -249 114q-76 0 -121.5 -37.5t-45.5 -98.5q0 -33 18 -59.5t48.5 -44.5t70.5 -34.5t84 -32.5t88 -34.5t84 -44.5t70.5 -59.5t48.5 -82.5t18 -110q0 -85 -44.5 -156.5t-130.5 -115.5q87 -49 131 -115t44 -161q0 -142 -107.5 -231 t-275.5 -89q-236 0 -386 153zM282 673q0 -36 14 -64.5t44 -51.5t63 -39.5t84 -37.5q126 59 126 168q0 39 -13.5 71t-39 54.5t-51.5 37.5t-60 28q-92 -22 -129.5 -64.5t-37.5 -101.5z" />
<glyph unicode="&#xa8;" horiz-adv-x="608" d="M-17 1330q0 51 35.5 87t86.5 36q20 0 38.5 -6t34 -17.5t26.5 -27t17.5 -34t6.5 -38.5q0 -51 -36.5 -87t-86.5 -36q-33 0 -61.5 16.5t-44.5 45t-16 61.5zM381 1330q0 51 36 87t87 36t88 -36.5t37 -86.5t-37 -86.5t-88 -36.5t-87 36t-36 87z" />
<glyph unicode="&#xa9;" horiz-adv-x="1704" d="M96 732q0 154 60.5 294t161.5 241.5t241 161t294 59.5t294 -59.5t241 -161t160.5 -241.5t59.5 -294t-59.5 -293.5t-160.5 -241t-241 -162t-294 -60.5q-153 0 -293.5 60.5t-241.5 162t-161.5 241.5t-60.5 293zM169 731.5q0 -110.5 35 -214.5t98.5 -188t147.5 -147.5 t188 -98.5t215 -35q138 0 264.5 54.5t218 146.5t146.5 218.5t55 264.5t-55 264.5t-146.5 218t-218 146.5t-264.5 55q-111 0 -215 -35t-188 -98.5t-147.5 -147.5t-98.5 -188.5t-35 -215zM406 734q0 79 22.5 151.5t64.5 129t98.5 98t125.5 63.5t144 22q196 0 320 -144l-59 -61 q-28 38 -69.5 67t-91 44.5t-100.5 15.5q-73 0 -140 -28t-116.5 -78t-79.5 -123t-30 -157q0 -82 30 -154.5t79.5 -123.5t116.5 -80t140 -29q79 0 149 34t112 92l61 -59q-126 -146 -322 -146q-93 0 -177 35.5t-145.5 97.5t-97 148.5t-35.5 184.5z" />
<glyph unicode="&#xaa;" horiz-adv-x="740" d="M63 924q0 105 64.5 164.5t154.5 59.5q124 0 193 -83v98q0 63 -37.5 97.5t-100.5 34.5q-30 0 -60.5 -9t-61.5 -29t-58 -50l-63 108q54 52 126 78.5t146 26.5q47 0 87 -8.5t74 -27.5t58 -48t37.5 -71.5t13.5 -96.5v-453h-161v71q-71 -89 -193 -89q-90 0 -154.5 61 t-64.5 166zM224 927q0 -58 33 -91.5t88 -33.5q89 0 130 72v103q-42 73 -130 73q-55 0 -88 -34.5t-33 -88.5z" />
<glyph unicode="&#xab;" horiz-adv-x="926" d="M65 533l274 387h192l-274 -387l274 -395h-192zM399 533l274 387h188l-274 -387l274 -395h-188z" />
<glyph unicode="&#xac;" horiz-adv-x="974" d="M63 870v142h840v-560h-147v418h-693z" />
<glyph unicode="&#xad;" horiz-adv-x="590" d="M65 437v188h461v-188h-461z" />
<glyph unicode="&#xae;" horiz-adv-x="1081" d="M77 1019q0 95 36.5 181t99 148t148.5 98.5t180 36.5q96 0 182 -36.5t148 -98.5t98.5 -148t36.5 -181t-36.5 -181t-98.5 -148t-148 -99t-182 -37q-75 0 -146 23.5t-128 66.5t-100 100t-66.5 128t-23.5 147zM142 1019q0 -81 31.5 -154.5t85 -127t127.5 -85t155 -31.5 q109 0 201 53t145.5 145t53.5 200q0 110 -53.5 201.5t-145 144.5t-201 53t-201 -53t-145 -144.5t-53.5 -201.5zM364 751v533h217q70 0 120 -45t50 -117q0 -41 -16.5 -74t-40 -50t-44.5 -25.5t-35 -8.5l144 -213h-90l-138 211h-94v-211h-73zM437 1028h144q23 0 45 12t36.5 34 t14.5 48q0 43 -29.5 71t-66.5 28h-144v-193z" />
<glyph unicode="&#xaf;" horiz-adv-x="676" d="M0 1295v129h677v-129h-677z" />
<glyph unicode="&#xb0;" horiz-adv-x="656" d="M48 1201q0 116 82 199t196 83q117 0 200 -83t83 -199q0 -115 -83 -197t-200 -82q-75 0 -139 37.5t-101.5 101.5t-37.5 140zM175 1201q0 -63 44.5 -107t106.5 -44q65 0 111 44t46 107q0 64 -46 110t-111 46q-41 0 -75.5 -21t-55 -57t-20.5 -78z" />
<glyph unicode="&#xb1;" horiz-adv-x="966" d="M63 35v143h840v-143h-840zM63 690v140h343v377h155v-377h342v-140h-342v-391h-155v391h-343z" />
<glyph unicode="&#xb2;" horiz-adv-x="740" d="M67 1670q54 70 132.5 106.5t170.5 36.5q132 0 216.5 -68t84.5 -189q0 -43 -15 -86t-41 -84.5t-73.5 -95.5t-99 -105.5t-131.5 -126.5h364v-136h-589v126q105 95 168.5 155t116.5 114.5t78.5 92t39 71t13.5 66.5q0 61 -39 95.5t-99 34.5q-61 0 -114 -30.5t-85 -80.5z" />
<glyph unicode="&#xb3;" horiz-adv-x="740" d="M59 1050l98 102q37 -50 91 -79.5t114 -29.5q72 0 110 35t38 95q0 36 -13.5 62.5t-37.5 41t-53 21t-65 6.5q-63 0 -76 -2v135q13 -2 72 -2q76 0 119.5 29.5t43.5 91.5q0 39 -19 67t-51 41t-75 13q-117 0 -192 -99l-92 94q48 66 124.5 103.5t172.5 37.5q136 0 216 -62 t80 -175q0 -77 -51 -132.5t-122 -67.5q73 -11 129.5 -68.5t56.5 -144.5q0 -75 -37.5 -133t-108 -90.5t-163.5 -32.5q-104 0 -185 39.5t-124 103.5z" />
<glyph unicode="&#xb4;" horiz-adv-x="444" d="M0 1219l241 315h204l-296 -315h-149z" />
<glyph unicode="&#xb6;" horiz-adv-x="983" d="M59 1085q0 103 50.5 189.5t137.5 137t190 50.5h416v-1681h-117v1564h-184v-1564h-115v927q-103 0 -190 50.5t-137.5 137t-50.5 189.5z" />
<glyph unicode="&#xb7;" horiz-adv-x="529" d="M119 537q0 60 43 102.5t103.5 42.5t103.5 -42.5t43 -102.5q0 -61 -43 -103.5t-104 -42.5t-103.5 42.5t-42.5 103.5z" />
<glyph unicode="&#xb8;" horiz-adv-x="426" d="M0 -355l46 94q77 -61 155 -61q45 0 77.5 22.5t32.5 58.5q0 32 -17.5 50t-48.5 18q-39 0 -65 -34l-86 50l66 182h116l-55 -142q29 23 70 23q58 0 97 -41.5t39 -107.5q0 -81 -62.5 -130.5t-157.5 -49.5q-62 0 -117 19t-90 49z" />
<glyph unicode="&#xb9;" horiz-adv-x="540" d="M25 1543l253 256h147v-877h-168v661l-136 -141z" />
<glyph unicode="&#xba;" horiz-adv-x="774" d="M67 1058q0 99 36.5 180t110 131.5t171.5 50.5q76 0 138 -29t102 -79t61.5 -115t21.5 -139q0 -73 -21.5 -138t-61.5 -115t-102 -79t-138 -29q-74 0 -135 29t-100.5 79t-61 115t-21.5 138zM234 1058q0 -102 38.5 -166t112.5 -64q77 0 116.5 64t39.5 166t-39.5 165 t-116.5 63q-74 0 -112.5 -63t-38.5 -165z" />
<glyph unicode="&#xbb;" horiz-adv-x="926" d="M65 138l274 395l-274 387h192l274 -387l-274 -395h-192zM399 138l274 395l-274 387h188l274 -387l-274 -395h-188z" />
<glyph unicode="&#xbc;" horiz-adv-x="1560" d="M25 1205l253 257h147v-877h-168v659l-136 -140zM299 0l768 1462h125l-771 -1462h-122zM872 207v124l324 545h220v-537h96v-132h-96v-207h-169v207h-375zM1028 339h219v374z" />
<glyph unicode="&#xbd;" horiz-adv-x="1636" d="M25 1205l253 257h147v-877h-168v659l-136 -140zM299 0l768 1462h125l-771 -1462h-122zM964 747q27 35 61 62t72.5 44.5t81 26.5t88.5 9q132 0 215.5 -67t83.5 -189q0 -42 -14.5 -85t-40.5 -84.5t-73.5 -95.5t-99 -105.5t-131.5 -126.5h364v-136h-589v125 q106 95 169.5 155t116.5 115t78.5 92.5t38.5 70.5t13 67q0 61 -39 95t-99 34q-30 0 -60 -8t-55.5 -23t-47 -35t-37.5 -44z" />
<glyph unicode="&#xbe;" horiz-adv-x="1708" d="M59 713l98 102q37 -51 91.5 -80.5t113.5 -29.5q36 0 64.5 9.5t46.5 26.5t27.5 41t9.5 53q0 36 -13.5 62.5t-37.5 41t-53 21t-65 6.5q-63 0 -76 -2v136q13 -2 72 -2q76 0 119.5 29.5t43.5 91.5q0 59 -39.5 89.5t-105.5 30.5q-117 0 -192 -99l-92 94q48 66 124.5 103 t172.5 37q136 0 216 -61.5t80 -174.5q0 -77 -51 -132t-122 -67q73 -11 129.5 -68.5t56.5 -144.5q0 -75 -37.5 -133t-108 -91t-163.5 -33q-104 0 -185 40t-124 104zM445 0l769 1462h125l-772 -1462h-122zM1019 207v124l324 545h219v-537h96v-132h-96v-207h-168v207h-375z M1175 339h219v374z" />
<glyph unicode="&#xbf;" horiz-adv-x="742" d="M48 -101q0 54 14 102t36.5 83.5t51.5 70t59 61t59 56t52 56.5t36.5 60.5t13.5 69.5q0 28 -12 56t-32 47l184 68q67 -72 67 -186q0 -46 -12.5 -87.5t-32.5 -72t-45.5 -60.5t-52.5 -53.5t-52.5 -50.5t-45.5 -52t-32.5 -57.5t-12.5 -68.5q0 -65 47 -111.5t129 -46.5 q69 0 121.5 28.5t97.5 85.5l123 -154q-71 -83 -169 -127.5t-213 -44.5q-172 0 -275.5 93t-103.5 235zM282 933q0 61 43.5 104.5t103.5 43.5q61 0 104.5 -43.5t43.5 -104.5q0 -59 -43.5 -101.5t-104.5 -42.5q-60 0 -103.5 42.5t-43.5 101.5z" />
<glyph unicode="&#xc0;" d="M6 0l439 1462h289l439 -1462h-261l-82 289h-481l-81 -289h-262zM293 1911h202l243 -316h-148zM397 504h385l-192 699z" />
<glyph unicode="&#xc1;" d="M6 0l439 1462h289l439 -1462h-261l-82 289h-481l-81 -289h-262zM397 504h385l-192 699zM445 1595l241 316h203l-295 -316h-149z" />
<glyph unicode="&#xc2;" d="M6 0l439 1462h289l439 -1462h-261l-82 289h-481l-81 -289h-262zM318 1595l171 316h201l178 -316h-132l-146 213l-141 -213h-131zM397 504h385l-192 699z" />
<glyph unicode="&#xc3;" d="M6 0l439 1462h289l439 -1462h-261l-82 289h-481l-81 -289h-262zM280 1604q0 133 53 213.5t150 80.5q31 0 56.5 -13t41.5 -33t31.5 -43t27 -42.5t28 -32.5t35.5 -13q36 0 57.5 40.5t21.5 122.5h119q0 -133 -52 -213t-148 -80q-32 0 -58 13t-41.5 33t-31 43t-27 42.5 t-28 33t-35.5 13.5q-36 0 -58.5 -42t-22.5 -123h-119zM397 504h385l-192 699z" />
<glyph unicode="&#xc4;" d="M6 0l439 1462h289l439 -1462h-261l-82 289h-481l-81 -289h-262zM268 1704.5q0 50.5 36 87t86.5 36.5t86.5 -36.5t36 -86.5q0 -34 -16.5 -62t-44.5 -44t-61 -16q-51 0 -87 35.5t-36 86zM397 504h385l-192 699zM667 1704.5q0 50.5 35.5 87t86.5 36.5q50 0 87.5 -36.5 t37.5 -87t-37.5 -86t-87.5 -35.5q-51 0 -86.5 35.5t-35.5 86z" />
<glyph unicode="&#xc5;" d="M6 0l439 1462h289l439 -1462h-261l-82 289h-481l-81 -289h-262zM383 1725q0 85 61.5 145t147.5 60q83 0 143 -60t60 -145t-60 -147t-143 -62q-85 0 -147 62t-62 147zM397 504h385l-192 699zM487 1725q0 -43 30.5 -74.5t74.5 -31.5q42 0 71 31.5t29 74.5t-29 73t-71 30 q-44 0 -74.5 -30t-30.5 -73z" />
<glyph unicode="&#xc6;" horiz-adv-x="1695" d="M9 0l694 1462h901v-213h-559v-396h544v-213h-544v-427h559v-213h-799v289h-404l-131 -289h-261zM487 504h318v699z" />
<glyph unicode="&#xc7;" horiz-adv-x="1202" d="M86 730q0 164 42 303.5t118.5 240t189 156.5t248.5 56q74 0 139 -18.5t113 -48t89.5 -73t69.5 -87t53 -96.5l-199 -89q-27 60 -64.5 103.5t-89 68.5t-111.5 25q-106 0 -186 -70t-122.5 -192.5t-42.5 -279t42.5 -279t122.5 -192.5t186 -70q91 0 160 59t105 156l201 -87 q-24 -54 -50.5 -98t-65 -88.5t-83 -75.5t-104 -52.5t-128.5 -26.5l-31 -82q28 21 71 21q57 0 96.5 -41t39.5 -107q0 -54 -29.5 -95t-79.5 -63t-113 -22q-62 0 -117 19t-89 48l46 94q77 -61 156 -61q44 0 76.5 22.5t32.5 59.5q0 31 -17 49t-48 18q-42 0 -67 -32l-85 48 l46 130q-160 19 -278.5 119.5t-180.5 262.5t-62 367z" />
<glyph unicode="&#xc8;" horiz-adv-x="1035" d="M140 0v1462h803v-213h-562v-396h546v-213h-546v-427h562v-213h-803zM245 1911h202l243 -316h-149z" />
<glyph unicode="&#xc9;" horiz-adv-x="1035" d="M140 0v1462h803v-213h-562v-396h546v-213h-546v-427h562v-213h-803zM399 1595l241 316h203l-295 -316h-149z" />
<glyph unicode="&#xca;" horiz-adv-x="1035" d="M140 0v1462h803v-213h-562v-396h546v-213h-546v-427h562v-213h-803zM268 1595l171 316h201l177 -316h-131l-147 213l-140 -213h-131z" />
<glyph unicode="&#xcb;" horiz-adv-x="1035" d="M140 0v1462h803v-213h-562v-396h546v-213h-546v-427h562v-213h-803zM221 1704.5q0 50.5 36.5 87t87 36.5t86.5 -36.5t36 -87t-36 -86t-86.5 -35.5t-87 35.5t-36.5 86zM621 1704.5q0 50.5 35.5 87t86.5 36.5q50 0 87.5 -36.5t37.5 -87t-37.5 -86t-87.5 -35.5 q-51 0 -86.5 35.5t-35.5 86z" />
<glyph unicode="&#xcc;" horiz-adv-x="521" d="M-37 1911h202l243 -316h-149zM140 0v1462h241v-1462h-241z" />
<glyph unicode="&#xcd;" horiz-adv-x="521" d="M119 1595l241 316h203l-295 -316h-149zM140 0v1462h241v-1462h-241z" />
<glyph unicode="&#xce;" horiz-adv-x="521" d="M-13 1595l170 316h203l177 -316h-131l-147 213l-140 -213h-132zM140 0v1462h241v-1462h-241z" />
<glyph unicode="&#xcf;" horiz-adv-x="521" d="M-59 1704.5q0 50.5 36 87t86.5 36.5t86.5 -36.5t36 -87t-36 -86t-86.5 -35.5t-86.5 35.5t-36 86zM140 0v1462h241v-1462h-241zM339 1704.5q0 50.5 36.5 87t86.5 36.5q51 0 88 -36.5t37 -87t-37 -86t-88 -35.5q-50 0 -86.5 35.5t-36.5 86z" />
<glyph unicode="&#xd0;" horiz-adv-x="1332" d="M31 633v176h162v653h436q146 0 263.5 -55.5t194.5 -153.5t118.5 -231.5t41.5 -291.5q0 -160 -41 -293.5t-117.5 -231t-194 -151.5t-263.5 -54h-438v633h-162zM434 213h195q118 0 202.5 66.5t126 182t41.5 268.5q0 116 -23.5 211t-69 164t-116.5 106.5t-161 37.5h-195 v-440h254v-176h-254v-420z" />
<glyph unicode="&#xd1;" horiz-adv-x="1301" d="M140 0v1462h245l533 -958v958h243v-1462h-232l-548 987v-987h-241zM337 1604q0 133 53 213.5t149 80.5q32 0 57.5 -13t41.5 -33t31.5 -43t27.5 -42.5t28.5 -32.5t35.5 -13q17 0 31.5 9.5t25 29t16 51.5t5.5 73h119q0 -87 -22 -152.5t-67.5 -103t-109.5 -37.5 q-32 0 -58 13t-42 33t-31.5 43t-27 42.5t-28 33t-35.5 13.5q-36 0 -58.5 -42t-22.5 -123h-119z" />
<glyph unicode="&#xd2;" horiz-adv-x="1347" d="M86 730q0 161 39.5 299t113.5 240t185.5 159.5t248.5 57.5t249 -57.5t186 -159.5t114.5 -240t40.5 -299t-40.5 -299.5t-114.5 -240t-186 -159.5t-249 -58t-248.5 58t-185.5 159.5t-113.5 240t-39.5 299.5zM333 730q0 -155 38.5 -276t116.5 -193.5t185 -72.5t185 72.5 t116 193.5t38 276t-38.5 276t-116 193t-184.5 72t-185 -71.5t-116.5 -193t-38.5 -276.5zM379 1911h202l243 -316h-149z" />
<glyph unicode="&#xd3;" horiz-adv-x="1347" d="M86 730q0 161 39.5 299t113.5 240t185.5 159.5t248.5 57.5t249 -57.5t186 -159.5t114.5 -240t40.5 -299t-40.5 -299.5t-114.5 -240t-186 -159.5t-249 -58t-248.5 58t-185.5 159.5t-113.5 240t-39.5 299.5zM333 730q0 -155 38.5 -276t116.5 -193.5t185 -72.5t185 72.5 t116 193.5t38 276t-38.5 276t-116 193t-184.5 72t-185 -71.5t-116.5 -193t-38.5 -276.5zM531 1595l240 316h204l-296 -316h-148z" />
<glyph unicode="&#xd4;" horiz-adv-x="1347" d="M86 730q0 161 39.5 299t113.5 240t185.5 159.5t248.5 57.5t249 -57.5t186 -159.5t114.5 -240t40.5 -299t-40.5 -299.5t-114.5 -240t-186 -159.5t-249 -58t-248.5 58t-185.5 159.5t-113.5 240t-39.5 299.5zM333 730q0 -155 38.5 -276t116.5 -193.5t185 -72.5t185 72.5 t116 193.5t38 276t-38.5 276t-116 193t-184.5 72t-185 -71.5t-116.5 -193t-38.5 -276.5zM401 1595l171 316h202l177 -316h-131l-147 213l-140 -213h-132z" />
<glyph unicode="&#xd5;" horiz-adv-x="1347" d="M86 730q0 161 39.5 299t113.5 240t185.5 159.5t248.5 57.5t249 -57.5t186 -159.5t114.5 -240t40.5 -299t-40.5 -299.5t-114.5 -240t-186 -159.5t-249 -58t-248.5 58t-185.5 159.5t-113.5 240t-39.5 299.5zM333 730q0 -155 38.5 -276t116.5 -193.5t185 -72.5t185 72.5 t116 193.5t38 276t-38.5 276t-116 193t-184.5 72t-185 -71.5t-116.5 -193t-38.5 -276.5zM364 1604q0 133 52.5 213.5t148.5 80.5q31 0 57 -13t42 -33t31.5 -43t27 -42.5t28.5 -32.5t35 -13q37 0 58.5 40.5t21.5 122.5h118q0 -133 -51.5 -213t-148.5 -80q-32 0 -58 13 t-41.5 33t-31 43t-27 42.5t-28 33t-35.5 13.5q-24 0 -41.5 -17.5t-28 -55t-10.5 -92.5h-119z" />
<glyph unicode="&#xd6;" horiz-adv-x="1347" d="M86 730q0 161 39.5 299t113.5 240t185.5 159.5t248.5 57.5t249 -57.5t186 -159.5t114.5 -240t40.5 -299t-40.5 -299.5t-114.5 -240t-186 -159.5t-249 -58t-248.5 58t-185.5 159.5t-113.5 240t-39.5 299.5zM333 730q0 -155 38.5 -276t116.5 -193.5t185 -72.5t185 72.5 t116 193.5t38 276t-38.5 276t-116 193t-184.5 72t-185 -71.5t-116.5 -193t-38.5 -276.5zM353 1704.5q0 50.5 36 87t86.5 36.5t86.5 -36.5t36 -87t-36 -86t-86.5 -35.5t-86.5 35.5t-36 86zM751 1704.5q0 50.5 36.5 87t86.5 36.5q51 0 88 -36.5t37 -86.5q0 -34 -17 -62 t-46 -44t-62 -16q-50 0 -86.5 35.5t-36.5 86z" />
<glyph unicode="&#xd7;" horiz-adv-x="966" d="M111 460l272 272l-272 272l102 100l272 -274l271 274l99 -100l-270 -272l270 -272l-99 -100l-271 273l-272 -273z" />
<glyph unicode="&#xd8;" horiz-adv-x="1347" d="M86 730q0 161 39.5 299t113.5 240t185.5 159.5t248.5 57.5q169 0 302 -90l39 66h165l-96 -163q87 -103 133.5 -249.5t46.5 -319.5q0 -161 -40.5 -299.5t-114.5 -240t-186 -159.5t-249 -58q-173 0 -313 98l-40 -71h-165l100 171q-82 102 -125.5 246t-43.5 313zM333 730 q0 -191 60 -327l466 793q-78 75 -186 75q-107 0 -185 -71.5t-116.5 -193t-38.5 -276.5zM477 270q78 -82 196 -82q107 0 185 72.5t116 193.5t38 276q0 200 -63 339z" />
<glyph unicode="&#xd9;" horiz-adv-x="1298" d="M140 493v969h243v-971q0 -147 69.5 -225t198.5 -78q127 0 196 78t69 225v971h243v-969q0 -247 -135.5 -383.5t-372.5 -136.5q-239 0 -375 136.5t-136 383.5zM355 1911h201l244 -316h-149z" />
<glyph unicode="&#xda;" horiz-adv-x="1298" d="M140 493v969h243v-971q0 -147 69.5 -225t198.5 -78q127 0 196 78t69 225v971h243v-969q0 -247 -135.5 -383.5t-372.5 -136.5q-239 0 -375 136.5t-136 383.5zM506 1595l241 316h204l-296 -316h-149z" />
<glyph unicode="&#xdb;" horiz-adv-x="1298" d="M140 493v969h243v-971q0 -147 69.5 -225t198.5 -78q127 0 196 78t69 225v971h243v-969q0 -247 -135.5 -383.5t-372.5 -136.5q-239 0 -375 136.5t-136 383.5zM381 1595l171 316h202l177 -316h-131l-147 213l-140 -213h-132z" />
<glyph unicode="&#xdc;" horiz-adv-x="1298" d="M140 493v969h243v-971q0 -147 69.5 -225t198.5 -78q127 0 196 78t69 225v971h243v-969q0 -247 -135.5 -383.5t-372.5 -136.5q-239 0 -375 136.5t-136 383.5zM328 1704.5q0 50.5 36.5 87t87 36.5t87 -36.5t36.5 -87t-36.5 -86t-87 -35.5t-87 35.5t-36.5 86zM728 1704.5 q0 50.5 36 87t86.5 36.5t87.5 -36.5t37 -86.5q0 -34 -17 -62t-45.5 -44t-61.5 -16q-51 0 -87 35.5t-36 86z" />
<glyph unicode="&#xdd;" horiz-adv-x="1148" d="M0 1462h268l307 -625l306 625h267l-454 -853v-609h-240v609zM437 1595l240 316h204l-296 -316h-148z" />
<glyph unicode="&#xde;" horiz-adv-x="1127" d="M140 0v1462h241v-250h257q105 0 189 -36.5t136.5 -100t80 -145t27.5 -174.5q0 -92 -28 -173t-80.5 -143.5t-136.5 -98.5t-188 -36h-257v-305h-241zM381 517h228q98 0 156.5 66t58.5 173q0 110 -58.5 176.5t-156.5 66.5h-228v-482z" />
<glyph unicode="&#xdf;" horiz-adv-x="1219" d="M138 0v1081q0 83 29.5 156.5t82.5 128t133 86t176 31.5q78 0 150 -22t126 -60.5t86 -94.5t32 -120q0 -48 -14 -89t-37 -70t-51 -54t-56 -46.5t-51 -42t-37.5 -45.5t-14.5 -53q0 -29 17 -53t46 -40t66 -31t78 -30.5t82 -33.5t78 -45t66 -61.5t46 -85t17 -113.5 q0 -65 -26 -123t-73 -102t-117 -69.5t-154.5 -25.5t-153.5 21t-115.5 52.5t-94.5 80.5l90 153q43 -55 109 -93t144 -38t124.5 38.5t46.5 99.5q0 32 -16.5 58t-44.5 44.5t-64.5 35t-77 32.5t-80.5 34.5t-76.5 44t-64.5 57.5t-44.5 79t-16.5 104q0 44 13.5 82t36 65.5t49 52 t53.5 45.5t49 41t36 45t14 52q0 57 -52 94t-123 37q-90 0 -147 -54t-57 -155v-1081h-217z" />
<glyph unicode="&#xe0;" horiz-adv-x="1027" d="M75 324q0 67 17.5 124t48 97.5t71.5 69t88.5 42.5t98.5 14q86 0 161 -33.5t119 -98.5v158q0 47 -13.5 85t-40 63.5t-65 39.5t-87.5 14q-144 0 -264 -123l-86 153q77 78 179 117t211 39q85 0 154 -20.5t121.5 -62.5t81.5 -112.5t29 -164.5v-725h-220v111 q-30 -45 -75.5 -76.5t-97.5 -46.5t-107 -15q-51 0 -98.5 15t-88.5 44.5t-71.5 71t-48 98.5t-17.5 122zM217 1534h201l243 -315h-148zM293 322q0 -56 22.5 -101t65 -70.5t96.5 -25.5q65 0 119 27t83 82v174q-29 56 -83 83.5t-119 27.5q-82 0 -133 -55.5t-51 -141.5z" />
<glyph unicode="&#xe1;" horiz-adv-x="1027" d="M75 324q0 67 17.5 124t48 97.5t71.5 69t88.5 42.5t98.5 14q86 0 161 -33.5t119 -98.5v158q0 47 -13.5 85t-40 63.5t-65 39.5t-87.5 14q-144 0 -264 -123l-86 153q77 78 179 117t211 39q85 0 154 -20.5t121.5 -62.5t81.5 -112.5t29 -164.5v-725h-220v111 q-30 -45 -75.5 -76.5t-97.5 -46.5t-107 -15q-51 0 -98.5 15t-88.5 44.5t-71.5 71t-48 98.5t-17.5 122zM293 322q0 -56 22.5 -101t65 -70.5t96.5 -25.5q65 0 119 27t83 82v174q-29 56 -83 83.5t-119 27.5q-82 0 -133 -55.5t-51 -141.5zM372 1219l241 315h204l-296 -315h-149z " />
<glyph unicode="&#xe2;" horiz-adv-x="1027" d="M75 324q0 67 17.5 124t48 97.5t71.5 69t88.5 42.5t98.5 14q86 0 161 -33.5t119 -98.5v158q0 47 -13.5 85t-40 63.5t-65 39.5t-87.5 14q-144 0 -264 -123l-86 153q77 78 179 117t211 39q85 0 154 -20.5t121.5 -62.5t81.5 -112.5t29 -164.5v-725h-220v111 q-30 -45 -75.5 -76.5t-97.5 -46.5t-107 -15q-51 0 -98.5 15t-88.5 44.5t-71.5 71t-48 98.5t-17.5 122zM245 1219l171 315h202l177 -315h-131l-147 212l-140 -212h-132zM293 322q0 -56 22.5 -101t65 -70.5t96.5 -25.5q65 0 119 27t83 82v174q-29 56 -83 83.5t-119 27.5 q-82 0 -133 -55.5t-51 -141.5z" />
<glyph unicode="&#xe3;" horiz-adv-x="1027" d="M75 324q0 67 17.5 124t48 97.5t71.5 69t88.5 42.5t98.5 14q86 0 161 -33.5t119 -98.5v158q0 47 -13.5 85t-40 63.5t-65 39.5t-87.5 14q-144 0 -264 -123l-86 153q77 78 179 117t211 39q85 0 154 -20.5t121.5 -62.5t81.5 -112.5t29 -164.5v-725h-220v111 q-30 -45 -75.5 -76.5t-97.5 -46.5t-107 -15q-51 0 -98.5 15t-88.5 44.5t-71.5 71t-48 98.5t-17.5 122zM207 1227q0 134 52 213.5t149 79.5q31 0 57 -13t41.5 -32.5t31.5 -42.5t27.5 -43t28 -33t35.5 -13q24 0 41.5 17t27.5 55t10 93h118q0 -134 -51.5 -214t-147.5 -80 q-32 0 -58 13.5t-42 33t-31.5 42.5t-27 42.5t-28 32.5t-34.5 13q-37 0 -59.5 -41t-22.5 -123h-117zM293 322q0 -56 22.5 -101t65 -70.5t96.5 -25.5q65 0 119 27t83 82v174q-29 56 -83 83.5t-119 27.5q-82 0 -133 -55.5t-51 -141.5z" />
<glyph unicode="&#xe4;" horiz-adv-x="1027" d="M75 324q0 67 17.5 124t48 97.5t71.5 69t88.5 42.5t98.5 14q86 0 161 -33.5t119 -98.5v158q0 47 -13.5 85t-40 63.5t-65 39.5t-87.5 14q-144 0 -264 -123l-86 153q77 78 179 117t211 39q85 0 154 -20.5t121.5 -62.5t81.5 -112.5t29 -164.5v-725h-220v111 q-30 -45 -75.5 -76.5t-97.5 -46.5t-107 -15q-51 0 -98.5 15t-88.5 44.5t-71.5 71t-48 98.5t-17.5 122zM190 1330q0 51 36.5 87t87 36t87 -36t36.5 -87t-36.5 -87t-87 -36t-87 36t-36.5 87zM293 322q0 -56 22.5 -101t65 -70.5t96.5 -25.5q65 0 119 27t83 82v174 q-29 56 -83 83.5t-119 27.5q-82 0 -133 -55.5t-51 -141.5zM590 1330q0 51 36 87t86.5 36t87.5 -36.5t37 -86.5t-37 -86.5t-87.5 -36.5t-86.5 36t-36 87z" />
<glyph unicode="&#xe5;" horiz-adv-x="1027" d="M75 324q0 67 17.5 124t48 97.5t71.5 69t88.5 42.5t98.5 14q86 0 161 -33.5t119 -98.5v158q0 47 -13.5 85t-40 63.5t-65 39.5t-87.5 14q-144 0 -264 -123l-86 153q77 78 179 117t211 39q85 0 154 -20.5t121.5 -62.5t81.5 -112.5t29 -164.5v-725h-220v111 q-30 -45 -75.5 -76.5t-97.5 -46.5t-107 -15q-51 0 -98.5 15t-88.5 44.5t-71.5 71t-48 98.5t-17.5 122zM293 322q0 -56 22.5 -101t65 -70.5t96.5 -25.5q65 0 119 27t83 82v174q-29 56 -83 83.5t-119 27.5q-82 0 -133 -55.5t-51 -141.5zM307 1401q0 84 61 144.5t147 60.5 q54 0 101.5 -27.5t75 -75t27.5 -102.5q0 -42 -16.5 -80.5t-44 -66.5t-65 -45t-78.5 -17q-42 0 -80.5 17t-66.5 45t-44.5 66.5t-16.5 80.5zM410 1401q0 -43 30.5 -74.5t74.5 -31.5q42 0 71 31.5t29 74.5q0 42 -29 72t-71 30q-44 0 -74.5 -30t-30.5 -72z" />
<glyph unicode="&#xe6;" horiz-adv-x="1640" d="M75 322q0 81 25.5 147.5t70 110t103 67.5t125.5 24q55 0 106 -14t97.5 -44t76.5 -74v158q0 47 -13.5 85t-40 63.5t-65 39.5t-87.5 14q-144 0 -264 -123l-86 153q77 78 179 117t211 39q236 0 307 -173q106 173 320 173q101 0 183.5 -43.5t136 -119.5t82.5 -178.5 t29 -222.5v-63h-676q5 -88 37.5 -156t94.5 -108.5t146 -40.5q65 0 130 31.5t110 85.5l105 -134q-67 -77 -163 -120t-203 -43q-124 0 -220 54t-158 142q-27 -38 -60 -70.5t-78 -62t-103.5 -46.5t-124.5 -17q-67 0 -127 23.5t-106 67t-73 110.5t-27 148zM293 322 q0 -92 51 -144.5t133 -52.5q72 0 131.5 36.5t94.5 108.5q-9 24 -16.5 65.5t-7.5 70.5q-29 58 -83 85.5t-119 27.5q-81 0 -132.5 -53t-51.5 -144zM895 613h466q0 29 -4.5 57.5t-13 58t-21.5 55t-32 48t-42.5 39t-54.5 25.5t-66 9t-65 -9.5t-53 -26t-41.5 -39.5t-31.5 -48.5 t-22 -54.5t-14 -57.5t-5 -56.5z" />
<glyph unicode="&#xe7;" horiz-adv-x="913" d="M77 531q0 158 56.5 283.5t163 198t244.5 72.5q211 0 325 -142l-110 -150q-77 99 -191 99q-81 0 -141.5 -48.5t-90.5 -130t-30 -183t30 -183t90.5 -131t141.5 -49.5q112 0 191 98l110 -148q-99 -127 -276 -142l-34 -86q28 21 71 21q57 0 96.5 -41.5t39.5 -107.5 q0 -80 -63 -129.5t-159 -49.5q-61 0 -116 18.5t-90 48.5l46 94q77 -61 156 -61q45 0 77 22.5t32 59.5q0 31 -17 49t-48 18q-41 0 -66 -32l-86 48l46 132q-121 16 -211.5 91t-138.5 194.5t-48 266.5z" />
<glyph unicode="&#xe8;" horiz-adv-x="1042" d="M77 531q0 115 32 216t89.5 176t144 118.5t190.5 43.5q85 0 156.5 -28t123.5 -78.5t88 -120.5t54 -154.5t18 -180.5v-65h-674q4 -88 36 -156t94 -108.5t148 -40.5q66 0 130 30t110 85l105 -132q-46 -51 -104 -87.5t-125 -56t-139 -19.5q-143 0 -252 71t-167 197t-58 290z M236 1534h203l243 -315h-149zM295 613h468q-1 42 -8.5 81.5t-25 78.5t-43.5 67.5t-66 46.5t-89 18q-48 0 -88 -18t-66 -47t-44.5 -68t-27 -78.5t-10.5 -80.5z" />
<glyph unicode="&#xe9;" horiz-adv-x="1042" d="M77 531q0 115 32 216t89.5 176t144 118.5t190.5 43.5q85 0 156.5 -28t123.5 -78.5t88 -120.5t54 -154.5t18 -180.5v-65h-674q4 -88 36 -156t94 -108.5t148 -40.5q66 0 130 30t110 85l105 -132q-46 -51 -104 -87.5t-125 -56t-139 -19.5q-143 0 -252 71t-167 197t-58 290z M295 613h468q-1 42 -8.5 81.5t-25 78.5t-43.5 67.5t-66 46.5t-89 18q-48 0 -88 -18t-66 -47t-44.5 -68t-27 -78.5t-10.5 -80.5zM393 1219l240 315h204l-296 -315h-148z" />
<glyph unicode="&#xea;" horiz-adv-x="1042" d="M77 531q0 115 32 216t89.5 176t144 118.5t190.5 43.5q85 0 156.5 -28t123.5 -78.5t88 -120.5t54 -154.5t18 -180.5v-65h-674q4 -88 36 -156t94 -108.5t148 -40.5q66 0 130 30t110 85l105 -132q-46 -51 -104 -87.5t-125 -56t-139 -19.5q-143 0 -252 71t-167 197t-58 290z M259 1219l170 315h202l178 -315h-132l-146 212l-140 -212h-132zM295 613h468q-1 42 -8.5 81.5t-25 78.5t-43.5 67.5t-66 46.5t-89 18q-48 0 -88 -18t-66 -47t-44.5 -68t-27 -78.5t-10.5 -80.5z" />
<glyph unicode="&#xeb;" horiz-adv-x="1042" d="M77 531q0 115 32 216t89.5 176t144 118.5t190.5 43.5q85 0 156.5 -28t123.5 -78.5t88 -120.5t54 -154.5t18 -180.5v-65h-674q4 -88 36 -156t94 -108.5t148 -40.5q66 0 130 30t110 85l105 -132q-46 -51 -104 -87.5t-125 -56t-139 -19.5q-143 0 -252 71t-167 197t-58 290z M209 1330q0 51 35.5 87t86 36t87 -36t36.5 -87t-36.5 -87t-86.5 -36q-33 0 -61.5 16.5t-44.5 45t-16 61.5zM295 613h468q-1 42 -8.5 81.5t-25 78.5t-43.5 67.5t-66 46.5t-89 18q-48 0 -88 -18t-66 -47t-44.5 -68t-27 -78.5t-10.5 -80.5zM607 1330q0 51 36 87t87 36 q50 0 87.5 -36.5t37.5 -86.5t-37.5 -86.5t-87.5 -36.5q-51 0 -87 36t-36 87z" />
<glyph unicode="&#xec;" horiz-adv-x="475" d="M-61 1534h201l243 -315h-149zM129 0v1058h218v-1058h-218z" />
<glyph unicode="&#xed;" horiz-adv-x="475" d="M94 1219l241 315h204l-296 -315h-149zM129 0v1058h218v-1058h-218z" />
<glyph unicode="&#xee;" horiz-adv-x="475" d="M-35 1219l171 315h201l178 -315h-132l-147 212l-140 -212h-131zM129 0v1058h218v-1058h-218z" />
<glyph unicode="&#xef;" horiz-adv-x="475" d="M-83 1330q0 51 36 87t86.5 36t87 -36t36.5 -87t-36.5 -87t-87 -36t-86.5 36t-36 87zM129 0v1058h218v-1058h-218zM316 1330q0 51 36 87t86.5 36t87.5 -36.5t37 -86.5t-37 -86.5t-87.5 -36.5t-86.5 36t-36 87z" />
<glyph unicode="&#xf0;" horiz-adv-x="1073" d="M77 504q0 146 47 265t139 190t212 71q174 0 272 -171q-59 164 -208 342l-271 -120l-49 109l237 103q-62 61 -121 114l156 134q65 -60 160 -163l195 86l43 -105l-159 -73q267 -347 267 -723q0 -174 -51.5 -306t-156.5 -208t-252 -76q-108 0 -196 42t-145 114.5t-88 168.5 t-31 206zM303 504q0 -92 24 -166.5t78.5 -122.5t131.5 -48q47 0 86 18t65.5 49.5t45 74.5t27 92t8.5 103q0 67 -14 126t-41.5 106.5t-73 75t-103.5 27.5t-104 -27.5t-73.5 -75t-42 -106.5t-14.5 -126z" />
<glyph unicode="&#xf1;" horiz-adv-x="1064" d="M134 0v1058h217v-142q18 26 42 50.5t54.5 46t64.5 37.5t72.5 25.5t76.5 9.5q41 0 76 -6.5t63 -19t51 -31t39.5 -42.5t28 -53.5t17 -63.5t5.5 -74v-795h-220v721q0 91 -39 131t-113 40q-66 0 -124.5 -43.5t-93.5 -103.5v-745h-217zM226 1227q0 134 52 213.5t149 79.5 q31 0 57 -13t42 -32.5t31.5 -42.5t27 -43t28.5 -33t35 -13q24 0 41.5 17t28 55t10.5 93h118q0 -88 -22 -153.5t-67.5 -103t-110.5 -37.5q-32 0 -58 13.5t-41.5 33t-31 42.5t-27 42.5t-28 32.5t-35.5 13q-37 0 -58.5 -41t-21.5 -123h-119z" />
<glyph unicode="&#xf2;" horiz-adv-x="1073" d="M77 531q0 90 18.5 172t57 152t92.5 121t129 80t163 29q74 0 138.5 -20.5t114.5 -57t89.5 -87.5t65.5 -113t39 -131.5t13 -144.5q0 -90 -18.5 -172.5t-57 -153t-92.5 -122t-129 -81t-163 -29.5t-163 29.5t-129 81t-92.5 122t-57 153t-18.5 172.5zM239 1534h202l243 -315 h-149zM303 531q0 -74 14 -138.5t41.5 -115.5t73.5 -80.5t105 -29.5t104.5 29.5t73 80.5t41 115t13.5 139q0 73 -13.5 137t-41 115t-73 80t-104.5 29t-105 -29t-73.5 -80t-41.5 -115t-14 -137z" />
<glyph unicode="&#xf3;" horiz-adv-x="1073" d="M77 531q0 90 18.5 172t57 152t92.5 121t129 80t163 29q74 0 138.5 -20.5t114.5 -57t89.5 -87.5t65.5 -113t39 -131.5t13 -144.5q0 -90 -18.5 -172.5t-57 -153t-92.5 -122t-129 -81t-163 -29.5t-163 29.5t-129 81t-92.5 122t-57 153t-18.5 172.5zM303 531q0 -74 14 -138.5 t41.5 -115.5t73.5 -80.5t105 -29.5t104.5 29.5t73 80.5t41 115t13.5 139q0 73 -13.5 137t-41 115t-73 80t-104.5 29t-105 -29t-73.5 -80t-41.5 -115t-14 -137zM393 1219l240 315h204l-296 -315h-148z" />
<glyph unicode="&#xf4;" horiz-adv-x="1073" d="M77 531q0 90 18.5 172t57 152t92.5 121t129 80t163 29q74 0 138.5 -20.5t114.5 -57t89.5 -87.5t65.5 -113t39 -131.5t13 -144.5q0 -90 -18.5 -172.5t-57 -153t-92.5 -122t-129 -81t-163 -29.5t-163 29.5t-129 81t-92.5 122t-57 153t-18.5 172.5zM263 1219l171 315h202 l177 -315h-131l-147 212l-140 -212h-132zM303 531q0 -74 14 -138.5t41.5 -115.5t73.5 -80.5t105 -29.5t104.5 29.5t73 80.5t41 115t13.5 139q0 73 -13.5 137t-41 115t-73 80t-104.5 29t-105 -29t-73.5 -80t-41.5 -115t-14 -137z" />
<glyph unicode="&#xf5;" horiz-adv-x="1073" d="M77 531q0 90 18.5 172t57 152t92.5 121t129 80t163 29q74 0 138.5 -20.5t114.5 -57t89.5 -87.5t65.5 -113t39 -131.5t13 -144.5q0 -90 -18.5 -172.5t-57 -153t-92.5 -122t-129 -81t-163 -29.5t-163 29.5t-129 81t-92.5 122t-57 153t-18.5 172.5zM226 1227q0 134 52 213.5 t149 79.5q31 0 57 -13t42 -32.5t31.5 -42.5t27 -43t28.5 -33t35 -13q24 0 41.5 17t28 55t10.5 93h118q0 -88 -22 -153.5t-67.5 -103t-110.5 -37.5q-32 0 -58 13.5t-41.5 33t-31 42.5t-27 42.5t-28 32.5t-35.5 13q-37 0 -58.5 -41t-21.5 -123h-119zM303 531q0 -74 14 -138.5 t41.5 -115.5t73.5 -80.5t105 -29.5t104.5 29.5t73 80.5t41 115t13.5 139q0 73 -13.5 137t-41 115t-73 80t-104.5 29t-105 -29t-73.5 -80t-41.5 -115t-14 -137z" />
<glyph unicode="&#xf6;" horiz-adv-x="1073" d="M77 531q0 90 18.5 172t57 152t92.5 121t129 80t163 29q74 0 138.5 -20.5t114.5 -57t89.5 -87.5t65.5 -113t39 -131.5t13 -144.5q0 -90 -18.5 -172.5t-57 -153t-92.5 -122t-129 -81t-163 -29.5t-163 29.5t-129 81t-92.5 122t-57 153t-18.5 172.5zM215 1330q0 51 36 87 t86.5 36t86.5 -36t36 -87t-36 -87t-86.5 -36t-86.5 36t-36 87zM303 531q0 -74 14 -138.5t41.5 -115.5t73.5 -80.5t105 -29.5t104.5 29.5t73 80.5t41 115t13.5 139q0 73 -13.5 137t-41 115t-73 80t-104.5 29t-105 -29t-73.5 -80t-41.5 -115t-14 -137zM613 1330q0 51 36.5 87 t86.5 36q51 0 88 -36.5t37 -86.5t-37 -86.5t-88 -36.5q-50 0 -86.5 36t-36.5 87z" />
<glyph unicode="&#xf7;" horiz-adv-x="970" d="M63 669v142h844v-142h-844zM370 374q0 19 6 36.5t17 31.5t25.5 24.5t32 16.5t36.5 6q47 0 81 -33.5t34 -81t-34 -81.5t-81.5 -34t-82 34t-34.5 81zM370 1098q0 47 34.5 80.5t82.5 33.5q31 0 57.5 -15t42 -41.5t15.5 -57.5q0 -48 -34 -82t-81.5 -34t-82 34.5t-34.5 81.5z " />
<glyph unicode="&#xf8;" horiz-adv-x="1073" d="M77 531q0 90 18.5 172t57 152t92.5 121t129 80t163 29q147 0 256 -81l39 54h134l-92 -134q40 -49 68 -112.5t41.5 -134t13.5 -146.5q0 -90 -18.5 -172.5t-57 -153t-92.5 -122t-129 -81t-163 -29.5q-151 0 -263 84l-40 -57h-136l97 138q-118 153 -118 393zM303 531 q0 -114 28 -196l344 497q-56 60 -138 60q-59 0 -105 -29t-73.5 -80t-41.5 -115t-14 -137zM393 228q57 -61 144 -61q59 0 104.5 29.5t73 80.5t41 115t13.5 139q0 105 -31 197z" />
<glyph unicode="&#xf9;" horiz-adv-x="1064" d="M129 259v799h218v-723q0 -90 39 -129t114 -39q45 0 88.5 21t75 52t53.5 69v749h216v-1058h-216v138q-48 -69 -131 -117t-178 -48q-279 0 -279 286zM236 1534h203l243 -315h-149z" />
<glyph unicode="&#xfa;" horiz-adv-x="1064" d="M129 259v799h218v-723q0 -90 39 -129t114 -39q45 0 88.5 21t75 52t53.5 69v749h216v-1058h-216v138q-48 -69 -131 -117t-178 -48q-279 0 -279 286zM391 1219l240 315h204l-296 -315h-148z" />
<glyph unicode="&#xfb;" horiz-adv-x="1064" d="M129 259v799h218v-723q0 -90 39 -129t114 -39q45 0 88.5 21t75 52t53.5 69v749h216v-1058h-216v138q-48 -69 -131 -117t-178 -48q-279 0 -279 286zM259 1219l170 315h202l178 -315h-132l-146 212l-140 -212h-132z" />
<glyph unicode="&#xfc;" horiz-adv-x="1064" d="M129 259v799h218v-723q0 -90 39 -129t114 -39q45 0 88.5 21t75 52t53.5 69v749h216v-1058h-216v138q-48 -69 -131 -117t-178 -48q-279 0 -279 286zM215 1330q0 51 36 87t86.5 36t86.5 -36t36 -87t-36 -87t-86.5 -36t-86.5 36t-36 87zM613 1330q0 51 36.5 87t86.5 36 q51 0 88 -36.5t37 -86.5t-37 -86.5t-88 -36.5q-50 0 -86.5 36t-36.5 87z" />
<glyph unicode="&#xfd;" horiz-adv-x="945" d="M2 1058h234l237 -795l240 795h232l-422 -1255q-44 -127 -118 -178.5t-192 -53.5q-26 0 -63 4.5t-56 10.5l33 193q24 -15 68 -15q45 0 74 20t47 69l46 128zM328 1219l241 315h205l-297 -315h-149z" />
<glyph unicode="&#xfe;" horiz-adv-x="1081" d="M129 -403v1865h218v-542q31 52 74.5 89.5t94 56.5t105.5 19q119 0 206.5 -67t134 -192.5t46.5 -294.5q0 -168 -46.5 -294t-134 -195t-206.5 -69q-82 0 -154.5 42.5t-119.5 124.5v-543h-218zM347 311q29 -60 88 -102t121 -42q56 0 99.5 27.5t71 77t41.5 115t14 144.5 q0 104 -24.5 184t-76 128.5t-125.5 48.5q-62 0 -120.5 -41t-88.5 -102v-438z" />
<glyph unicode="&#xff;" horiz-adv-x="945" d="M2 1058h234l237 -795l240 795h232l-422 -1255q-44 -127 -118 -178.5t-192 -53.5q-26 0 -63 4.5t-56 10.5l33 193q24 -15 68 -15q45 0 74 20t47 69l46 128zM151 1330q0 51 36 87t86.5 36t87 -36t36.5 -87t-36.5 -87t-87 -36t-86.5 36t-36 87zM550 1330q0 51 36 87t87 36 t87.5 -36.5t36.5 -86.5t-36.5 -86.5t-87.5 -36.5t-87 36t-36 87z" />
<glyph unicode="&#x152;" horiz-adv-x="1879" d="M86 730q0 162 37 299.5t106.5 238.5t174.5 158t234 57q103 0 199 -48t152 -145v172h801v-213h-561v-396h546v-213h-546v-427h561v-213h-801v171q-57 -98 -152.5 -148t-198.5 -50q-129 0 -234 57.5t-174.5 159t-106.5 240t-37 300.5zM333 730q0 -155 38 -276t117.5 -193.5 t188.5 -72.5q70 0 130.5 30.5t107.5 90.5t74 145v554q-41 126 -123 193.5t-189 67.5q-110 0 -189 -71.5t-117 -191.5t-38 -276z" />
<glyph unicode="&#x153;" horiz-adv-x="1737" d="M77 531q0 90 18.5 172t57 152t92.5 121t129 80t163 29q233 0 346 -236q22 48 52.5 88t72.5 74.5t98 54t121 19.5q105 0 189.5 -43.5t139 -119.5t83.5 -178.5t29 -222.5v-63h-677q6 -135 79 -220t199 -85q65 0 130.5 30.5t110.5 84.5l105 -132q-45 -51 -103 -87.5 t-125.5 -56t-137.5 -19.5q-247 0 -366 240q-113 -240 -346 -240q-88 0 -163 29.5t-129 81t-92.5 122t-57 153t-18.5 172.5zM303 531q0 -102 25 -183t79 -132t130 -51t129.5 51t78 132t24.5 183q0 100 -24.5 180t-78 130.5t-129.5 50.5t-130 -50.5t-79 -130.5t-25 -180z M991 613h466q-1 34 -7 67.5t-17.5 67t-30 61.5t-43.5 50t-60 34t-76 12q-47 0 -86.5 -18t-65.5 -47.5t-44 -68.5t-26.5 -78.5t-9.5 -79.5z" />
<glyph unicode="&#x178;" horiz-adv-x="1148" d="M0 1462h268l307 -625l306 625h267l-454 -853v-609h-240v609zM257 1704.5q0 50.5 35.5 87t86 36.5t87 -36.5t36.5 -87t-36.5 -86t-87 -35.5t-86 35.5t-35.5 86zM655 1704.5q0 50.5 36 87t87 36.5t88 -36.5t37 -87t-37 -86t-88 -35.5t-87 35.5t-36 86z" />
<glyph unicode="&#x2c6;" horiz-adv-x="549" d="M0 1219l171 315h201l178 -315h-132l-146 212l-140 -212h-132z" />
<glyph unicode="&#x2dc;" horiz-adv-x="619" d="M0 1227q0 134 52.5 213.5t148.5 79.5q32 0 57.5 -13t41.5 -32.5t31.5 -42.5t27.5 -43t28.5 -33t35.5 -13q23 0 40.5 17t28 55t10.5 93h119q0 -134 -52 -214t-148 -80q-32 0 -58 13.5t-42 33t-31.5 42.5t-27 42.5t-28 32.5t-35.5 13q-36 0 -58 -41t-22 -123h-119z" />
<glyph unicode="&#x2000;" horiz-adv-x="965" />
<glyph unicode="&#x2001;" horiz-adv-x="1930" />
<glyph unicode="&#x2002;" horiz-adv-x="965" />
<glyph unicode="&#x2003;" horiz-adv-x="1930" />
<glyph unicode="&#x2004;" horiz-adv-x="643" />
<glyph unicode="&#x2005;" horiz-adv-x="482" />
<glyph unicode="&#x2006;" horiz-adv-x="321" />
<glyph unicode="&#x2007;" horiz-adv-x="321" />
<glyph unicode="&#x2008;" horiz-adv-x="241" />
<glyph unicode="&#x2009;" horiz-adv-x="386" />
<glyph unicode="&#x200a;" horiz-adv-x="107" />
<glyph unicode="&#x2010;" horiz-adv-x="590" d="M65 437v188h461v-188h-461z" />
<glyph unicode="&#x2011;" horiz-adv-x="590" d="M65 437v188h461v-188h-461z" />
<glyph unicode="&#x2012;" horiz-adv-x="590" d="M65 437v188h461v-188h-461z" />
<glyph unicode="&#x2013;" horiz-adv-x="1154" d="M65 437v188h1024v-188h-1024z" />
<glyph unicode="&#x2014;" horiz-adv-x="1614" d="M65 437v188h1484v-188h-1484z" />
<glyph unicode="&#x2018;" horiz-adv-x="531" d="M103 1120q0 109 54 204.5t146 158.5l98 -78q-54 -34 -99 -93.5t-55 -113.5q9 5 35 5q27 0 50 -10t39.5 -27.5t26.5 -42.5t10 -54q0 -59 -41.5 -100.5t-101.5 -41.5q-68 0 -115 52t-47 141z" />
<glyph unicode="&#x2019;" horiz-adv-x="531" d="M119 1339q0 59 41.5 101.5t100.5 42.5q69 0 115.5 -51.5t46.5 -141.5q0 -109 -54 -205t-145 -161l-99 82q54 32 99 91.5t54 114.5q-11 -5 -35 -5q-53 0 -88.5 37t-35.5 95z" />
<glyph unicode="&#x201a;" horiz-adv-x="531" d="M119 127q0 60 41.5 101.5t100.5 41.5q69 0 115.5 -52t46.5 -141q0 -108 -54.5 -205t-144.5 -159l-99 80q54 32 99 91.5t54 113.5q-8 -4 -35 -4q-54 0 -89 37t-35 96z" />
<glyph unicode="&#x201c;" horiz-adv-x="926" d="M107 1120q0 109 54.5 204.5t145.5 158.5l101 -78q-55 -34 -100.5 -93.5t-54.5 -113.5q8 5 34 5q36 0 65 -17t45.5 -47.5t16.5 -69.5q0 -59 -42.5 -100.5t-101.5 -41.5q-68 0 -115.5 52.5t-47.5 140.5zM502 1120q0 73 25.5 142t70 124.5t103.5 96.5l101 -78 q-54 -34 -100 -93.5t-56 -113.5q13 5 36 5q36 0 65 -17t45.5 -47.5t16.5 -69.5q0 -59 -41.5 -100.5t-100.5 -41.5q-69 0 -117 52t-48 141z" />
<glyph unicode="&#x201d;" horiz-adv-x="926" d="M119 1339q0 59 41.5 101.5t100.5 42.5q69 0 115.5 -51.5t46.5 -141.5q0 -109 -54 -205t-145 -161l-99 82q54 32 99 91.5t54 114.5q-11 -5 -35 -5q-53 0 -88.5 37t-35.5 95zM513 1339q0 29 11 55.5t30 46t45.5 31t55.5 11.5q69 0 117 -52t48 -141q0 -108 -54.5 -204.5 t-144.5 -161.5l-102 82q21 12 42 30t40 39t34 44t25.5 47t14.5 46q-16 -5 -35 -5q-55 0 -91 37t-36 95z" />
<glyph unicode="&#x201e;" horiz-adv-x="926" d="M119 127q0 60 41.5 101.5t100.5 41.5q69 0 115.5 -52t46.5 -141q0 -108 -54.5 -205t-144.5 -159l-99 80q54 32 99 91.5t54 113.5q-8 -4 -35 -4q-54 0 -89 37t-35 96zM513 127q0 60 41 101.5t101 41.5q69 0 117 -52t48 -141q0 -107 -55 -204t-144 -160l-102 80 q54 33 100.5 92t55.5 113q-13 -4 -35 -4q-55 0 -91 37t-36 96z" />
<glyph unicode="&#x2022;" horiz-adv-x="784" d="M147 531q0 102 73 174.5t175 72.5t174.5 -72.5t72.5 -174.5q0 -101 -73 -173.5t-174.5 -72.5t-174.5 72.5t-73 173.5z" />
<glyph unicode="&#x2026;" horiz-adv-x="1590" d="M119 125q0 60 43 102.5t103.5 42.5t103.5 -42.5t43 -102.5q0 -61 -43 -103.5t-104 -42.5t-103.5 42.5t-42.5 103.5zM648 125q0 60 43 102.5t104 42.5t104.5 -42.5t43.5 -102.5q0 -61 -43.5 -103.5t-104.5 -42.5t-104 42.5t-43 103.5zM1179 125q0 60 43 102.5t104 42.5 q59 0 102.5 -43t43.5 -102q0 -60 -43.5 -103t-102.5 -43q-61 0 -104 42.5t-43 103.5z" />
<glyph unicode="&#x202f;" horiz-adv-x="386" />
<glyph unicode="&#x2039;" horiz-adv-x="595" d="M65 533l274 387h192l-274 -387l274 -395h-192z" />
<glyph unicode="&#x203a;" horiz-adv-x="595" d="M65 138l274 395l-274 387h192l274 -387l-274 -395h-192z" />
<glyph unicode="&#x205f;" horiz-adv-x="482" />
<glyph unicode="&#x20ac;" horiz-adv-x="1242" d="M46 506v142h83q-2 27 -2 82q0 59 2 87h-83v141h103q50 242 201.5 385t374.5 143q75 0 140 -18.5t113 -48t89 -73t69.5 -87t53.5 -96.5l-199 -89q-41 92 -108.5 144.5t-157.5 52.5q-116 0 -200.5 -84t-123.5 -229h419v-141h-441q-5 -57 -5 -87q0 -55 3 -82h443v-142h-419 q37 -147 121.5 -232.5t202.5 -85.5q92 0 161 59t105 156l201 -87q-25 -56 -53 -102t-70 -92t-90 -77.5t-113 -51.5t-141 -20q-223 0 -375.5 144.5t-200.5 388.5h-103z" />
<glyph unicode="&#x2122;" horiz-adv-x="906" d="M37 1405v57h289v-57h-113v-426h-62v426h-114zM406 979v483h94l118 -347l118 347h94v-483h-61v399l-142 -399h-18l-142 399v-399h-61z" />
<glyph unicode="&#xe000;" horiz-adv-x="1062" d="M0 0v1063h1063v-1063h-1063z" />
</font>
</defs>
</svg>
